<svg xmlns="http://www.w3.org/2000/svg" width="151.436" height="145" viewBox="0 0 151.436 145">
  <g id="Group_17136" data-name="Group 17136" transform="translate(-77.203 -63.991)">
    <g id="fire" transform="translate(161.941 143.393)">
      <path id="Path_11566" data-name="Path 11566" d="M838.9,678.486c1.287-3.369,3.471-5.571,5.723-7.856,2.963-3,8.466-8.568,14.07-7.687,4.775.745,4.25,5.333,10.8,8.669,6.18,3.166,8.551.034,14.714,3.437.914.508,7.365,4.182,8.839,11.124.61,2.878.457,6.823-.813,7.2-1.439.423-1.93-7.873-7.687-11.124-4.4-2.489-10.464-1.287-10.955.491-.525,1.879,5.554,3.116,8.991,9.651,1.507,2.845,1.829,5.435,2.286,8.991.423,3.353.9,10.227-.66,10.633-1.287.339-1.981-4.25-6.705-8.009-2.489-1.981-5.147-2.794-10.464-4.419-4.792-1.456-7.213-2.167-8.517-.982-1.93,1.761-.44,6.231-.169,7.027,1.9,5.689,6.739,8.06,6.383,8.669-.474.762-9.313-1.439-16.526-8.5C842.047,699.753,835.156,688.256,838.9,678.486Z" transform="translate(-837.837 -662.849)" fill="#e85d4a"/>
      <path id="Path_11567" data-name="Path 11567" d="M1170.195,860.55c-.068.474-.423,3.115,1.134,4.809,1.727,1.863,3.827.44,5.943,2.286,1.947,1.693,1.693,4.233,2.286,4.182.677-.051,1.71-3.488.254-5.571-.457-.66-1.575-1.253-3.793-2.4-2.269-1.185-2.574-1.134-3.166-1.778-1.473-1.592-1.253-3.674-1.778-3.674C1170.669,858.4,1170.314,859.653,1170.195,860.55Z" transform="translate(-1113.852 -825.289)" fill="#ec615b"/>
      <path id="Path_11568" data-name="Path 11568" d="M1080.607,979.562c-.948,1.422-.846,2.946-.762,4.555.1,1.642.169,2.98,1.134,4.182,1.1,1.371,2.929,1.947,3.166,1.642.186-.237-.643-.88-1.388-2.286a10.5,10.5,0,0,1-1.134-4.69c.051-3.048,1.846-4.859,1.388-5.181C1082.673,977.53,1081.369,978.411,1080.607,979.562Z" transform="translate(-1038.825 -924.423)" fill="#ec615b"/>
      <g id="Group_16893" data-name="Group 16893" transform="translate(48.456 26.581)">
        <g id="Group_16892" data-name="Group 16892">
          <path id="Path_11569" data-name="Path 11569" d="M1124.132,820.319c2.845,1.879,1.287,6.231,3.149,8.771.186.254.627,0,.44-.254-1.93-2.641-.288-6.942-3.335-8.957-.271-.186-.525.254-.254.44Z" transform="translate(-1124.016 -819.834)" fill="#ec615b"/>
        </g>
      </g>
      <g id="Group_16895" data-name="Group 16895" transform="translate(47.44 14.324)">
        <g id="Group_16894" data-name="Group 16894">
          <path id="Path_11570" data-name="Path 11570" d="M1118.134,747.928a16.413,16.413,0,0,1,6.011,9.414c.068.322.559.186.491-.135a16.89,16.89,0,0,0-6.231-9.7c-.288-.22-.542.22-.271.423Z" transform="translate(-1118.019 -747.445)" fill="#5222d0"/>
        </g>
      </g>
      <g id="Group_16897" data-name="Group 16897" transform="translate(37.65 23.771)">
        <g id="Group_16896" data-name="Group 16896">
          <path id="Path_11571" data-name="Path 11571" d="M1060.282,803.658a18.8,18.8,0,0,1,5.537,7.484c.118.3.61.169.491-.135a19.385,19.385,0,0,0-5.672-7.7c-.237-.2-.61.152-.356.356Z" transform="translate(-1060.197 -803.242)" fill="#5222d0"/>
        </g>
      </g>
      <g id="Group_16899" data-name="Group 16899" transform="translate(44.443 34.158)">
        <g id="Group_16898" data-name="Group 16898">
          <path id="Path_11572" data-name="Path 11572" d="M1100.332,864.893a14.327,14.327,0,0,1,.88,3.742c.034.322.542.322.508,0a15.223,15.223,0,0,0-.915-3.877c-.085-.3-.576-.169-.474.135Z" transform="translate(-1100.318 -864.585)" fill="#5222d0"/>
        </g>
      </g>
      <g id="Group_16901" data-name="Group 16901" transform="translate(18.251 37.092)">
        <g id="Group_16900" data-name="Group 16900">
          <path id="Path_11573" data-name="Path 11573" d="M945.778,882.1a10.388,10.388,0,0,0,1.456,7.315c.169.271.61.017.44-.254a9.856,9.856,0,0,1-1.405-6.925c.051-.322-.44-.457-.491-.135Z" transform="translate(-945.631 -881.914)" fill="#5222d0"/>
        </g>
      </g>
      <g id="Group_16903" data-name="Group 16903" transform="translate(20.5 45.598)">
        <g id="Group_16902" data-name="Group 16902">
          <path id="Path_11574" data-name="Path 11574" d="M958.945,932.533a11.676,11.676,0,0,0,2.32,2.98c.237.22.593-.135.356-.356a11.856,11.856,0,0,1-2.235-2.878c-.152-.288-.593-.034-.44.254Z" transform="translate(-958.913 -932.152)" fill="#5222d0"/>
        </g>
      </g>
      <g id="Group_16905" data-name="Group 16905" transform="translate(1.047 19.933)">
        <g id="Group_16904" data-name="Group 16904">
          <path id="Path_11575" data-name="Path 11575" d="M844.067,780.816a12.924,12.924,0,0,0,.474,4.758.255.255,0,0,0,.491-.135,12.554,12.554,0,0,1-.457-4.622c.034-.322-.474-.322-.508,0Z" transform="translate(-844.019 -780.575)" fill="#5222d0"/>
        </g>
      </g>
      <g id="Group_16907" data-name="Group 16907" transform="translate(2.07 26.352)">
        <g id="Group_16906" data-name="Group 16906">
          <path id="Path_11576" data-name="Path 11576" d="M850.069,818.793a11.251,11.251,0,0,0,1.473,3.691c.169.271.61.017.44-.254a11.281,11.281,0,0,1-1.422-3.573c-.068-.3-.559-.169-.491.135Z" transform="translate(-850.062 -818.485)" fill="#5222d0"/>
        </g>
      </g>
    </g>
    <g id="rocket" transform="translate(116.382 63.991)">
      <path id="Path_11577" data-name="Path 11577" d="M572.257,195.2c-.474,1.287-1.05,3.048-1.609,5.181a59.377,59.377,0,0,0-1.795,15.747,66.816,66.816,0,0,0,2.929,17.728,94.367,94.367,0,0,0,6.129,16.2,144.932,144.932,0,0,0,12.733,21.013c1.405,1.913,3.2,4.335,3.2,4.335,1.3,1.744,2.421,3.2,3.2,4.25a15.572,15.572,0,0,0,2.455,2.269,15.789,15.789,0,0,0,5.181,2.54c2.2-1.879,4.4-3.776,6.6-5.655,1,.948,2.015,1.879,3.014,2.828,1.388-1.422,2.624-2.557,3.59-3.386a47.037,47.037,0,0,1,8.483-5.943c.694-.372,1.287-.66,1.693-.847-.627-1.253-1.253-2.506-1.879-3.776a43.347,43.347,0,0,1,3.488-2.726,40.776,40.776,0,0,1,4.995-3.014A16.763,16.763,0,0,0,633.534,256a16.252,16.252,0,0,0-1.879-3.488c-3.911-5.638,7.619,9.905-7.45-11.6-5.842-8.331-8.754-12.513-10.091-14.24-4.182-5.469-7.467-9.211-9.8-11.869a77.392,77.392,0,0,0-8.11-8.381,40.673,40.673,0,0,0-8.381-5.943,48.913,48.913,0,0,0-7.078-2.828C577.269,196.47,574.34,195.691,572.257,195.2Z" transform="translate(-568.831 -194.98)" fill="#fff"/>
      <g id="Group_16909" data-name="Group 16909" transform="translate(0 0.35)">
        <g id="Group_16908" data-name="Group 16908">
          <path id="Path_11578" data-name="Path 11578" d="M571.669,196.141c-3.674,11.327-3.674,23.552-1.033,35.1a78.363,78.363,0,0,0,2.472,8.551c.491,1.422,1.084,2.811,1.608,4.216.186.491.22.982.44,1.473.322.762.66,1.524,1,2.286.626,1.422,1.287,2.828,1.981,4.233.694,1.388,1.541,2.709,2.167,4.114.237.525.44,1.084.711,1.592.356.643.88,1.134,1.253,1.761.779,1.3,1.524,2.641,2.337,3.928a197,197,0,0,0,12.242,17.152c.2.254.559-.1.356-.356-3.81-4.893-7.535-9.854-10.887-15.053-.83-1.287-1.625-2.574-2.4-3.894-.372-.626-.745-1.27-1.1-1.913-.356-.626-.83-1.067-1.2-1.676a11.339,11.339,0,0,1-.745-1.592c-.3-.728-.711-1.388-1.084-2.083-.711-1.3-1.372-2.624-2-3.962-.66-1.405-1.287-2.828-1.913-4.25-.271-.626-.372-1.287-.627-1.93-.271-.694-.559-1.388-.83-2.1a83.691,83.691,0,0,1-2.675-8.331,73.757,73.757,0,0,1-2.438-17.525,61.005,61.005,0,0,1,2.9-19.658c.051-.254-.44-.389-.525-.085Z" transform="translate(-568.769 -195.966)"/>
        </g>
      </g>
      <g id="Group_16911" data-name="Group 16911" transform="translate(2.899)">
        <g id="Group_16910" data-name="Group 16910">
          <path id="Path_11579" data-name="Path 11579" d="M586.127,194.425a34.12,34.12,0,0,1,8.364,2.133,45.578,45.578,0,0,1,7.619,3.336A60.825,60.825,0,0,1,615,210.273,156.946,156.946,0,0,1,626.1,223.328c3.488,4.47,6.824,9.092,10.041,13.766,3.556,5.2,6.976,10.5,10.329,15.848.169.271.61.017.44-.254-6.146-9.77-12.5-19.421-19.556-28.564-6.824-8.855-14.138-17.9-23.722-23.908a43.982,43.982,0,0,0-8.28-3.894,36.248,36.248,0,0,0-9.211-2.421.263.263,0,0,0-.017.525Z" transform="translate(-585.887 -193.9)"/>
        </g>
      </g>
      <g id="Group_16913" data-name="Group 16913" transform="translate(28.373 58.638)">
        <g id="Group_16912" data-name="Group 16912">
          <path id="Path_11580" data-name="Path 11580" d="M736.772,566.354a138.318,138.318,0,0,1,26.363-21c2.709-1.659,5.452-3.217,8.263-4.673.288-.152.034-.593-.254-.44a138.556,138.556,0,0,0-27.735,19.1q-3.606,3.2-6.993,6.654a.251.251,0,0,0,.356.356Z" transform="translate(-736.338 -540.213)"/>
        </g>
      </g>
      <g id="Group_16915" data-name="Group 16915" transform="translate(28.246 84.719)">
        <g id="Group_16914" data-name="Group 16914">
          <path id="Path_11581" data-name="Path 11581" d="M735.66,694.7a14.854,14.854,0,0,0,7.569,4.555.255.255,0,0,0,.135-.491,14.445,14.445,0,0,1-7.348-4.436c-.22-.237-.576.135-.356.372Z" transform="translate(-735.591 -694.252)"/>
        </g>
      </g>
      <g id="Group_16917" data-name="Group 16917" transform="translate(63.316 58.864)">
        <g id="Group_16916" data-name="Group 16916">
          <path id="Path_11582" data-name="Path 11582" d="M942.745,541.933A17.4,17.4,0,0,1,945,549.467c.017.322.525.322.508,0a18.024,18.024,0,0,0-2.32-7.789c-.152-.288-.593-.034-.44.254Z" transform="translate(-942.713 -541.552)"/>
        </g>
      </g>
      <g id="Group_16919" data-name="Group 16919" transform="translate(35.755 66.775)">
        <g id="Group_16918" data-name="Group 16918">
          <path id="Path_11583" data-name="Path 11583" d="M780.372,611.087a195.445,195.445,0,0,1,29.665-22.333c.271-.169.017-.609-.254-.44a196.532,196.532,0,0,0-29.766,22.418c-.237.22.118.576.356.356Z" transform="translate(-779.938 -588.275)"/>
        </g>
      </g>
      <g id="Group_16921" data-name="Group 16921" transform="translate(42.494 72.263)">
        <g id="Group_16920" data-name="Group 16920">
          <path id="Path_11584" data-name="Path 11584" d="M819.817,632.556c.931.914,1.862,1.829,2.794,2.76a.245.245,0,0,0,.356,0,48.453,48.453,0,0,1,9.194-7.636c.813-.525,1.642-1.016,2.489-1.49.542-.3,1.575-.593,1.9-1.168.339-.576-.169-1.355-.44-1.846a15.838,15.838,0,0,0-1.642-2.4c-.2-.254-.559.1-.356.355a14.871,14.871,0,0,1,1.558,2.3,2.04,2.04,0,0,1,.339.66c-.068.3-.135.593-.2.9-.085.051-.169.085-.254.135a12.488,12.488,0,0,1-1.151.627c-1.473.83-2.912,1.727-4.3,2.692a49.81,49.81,0,0,0-7.484,6.5h.356c-.931-.914-1.862-1.829-2.794-2.76a.258.258,0,0,0-.356.373Z" transform="translate(-819.738 -620.684)"/>
        </g>
      </g>
      <g id="Group_16923" data-name="Group 16923" transform="translate(3.678 18.193)">
        <g id="Group_16922" data-name="Group 16922">
          <path id="Path_11585" data-name="Path 11585" d="M590.916,325.553a103.613,103.613,0,0,1,14.036-13.207,77.351,77.351,0,0,1,16.136-10.532c.3-.135.034-.576-.254-.44a77.048,77.048,0,0,0-16,10.413,104.783,104.783,0,0,0-14.274,13.393c-.22.271.135.626.356.372Z" transform="translate(-590.491 -301.349)"/>
        </g>
      </g>
      <g id="Group_16925" data-name="Group 16925" transform="translate(33.441 19.725)">
        <g id="Group_16924" data-name="Group 16924">
          <path id="Path_11586" data-name="Path 11586" d="M767.207,311.7c-.559.034-.8-.9-.169-.948a.546.546,0,0,1,.559.3.527.527,0,0,1-.508.66.2.2,0,0,0,0,.389.859.859,0,1,0-.051-1.71.793.793,0,0,0-.762.863.936.936,0,0,0,.931.847c.254-.034.254-.423,0-.406Z" transform="translate(-766.271 -310.396)"/>
        </g>
      </g>
      <g id="Group_16927" data-name="Group 16927" transform="translate(59.805 57.29)">
        <g id="Group_16926" data-name="Group 16926">
          <path id="Path_11587" data-name="Path 11587" d="M922.4,533.449c.017,0,.017,0,.034-.017-.051,0-.1-.017-.152-.017.186.085.085-.271.068-.322a.6.6,0,0,1,.034-.169.573.573,0,0,1,.237-.254.4.4,0,0,1,.525.288.366.366,0,0,1-.677.271c-.1-.22-.423-.034-.322.186a.773.773,0,0,0,1.236.152.8.8,0,1,0-1.388-.3c.051.22.339.491.559.271.169-.169,0-.542-.254-.44-.22.085-.119.44.1.356Z" transform="translate(-921.976 -532.257)"/>
        </g>
      </g>
      <path id="Path_11588" data-name="Path 11588" d="M589,195.8a94.369,94.369,0,0,1,10.261,7.67c2.455,2.117,8.821,7.789,16.78,18.794,8.635,11.937,12.953,17.9,13.816,24.551.44,3.471,1.05,13.359-7.67,25.516,3.607-2.743,7.23-5.5,10.836-8.246,1.575,2.591,3.132,5.181,4.707,7.772-1.693,1.253-3.386,2.489-5.08,3.742.83,1,1.659,1.981,2.489,2.98a35.566,35.566,0,0,1,3.64-3.065,34.93,34.93,0,0,1,6.045-3.556c-.677-1.3-1.338-2.624-2.015-3.928,2.912-1.913,5.825-3.844,8.737-5.757a22.091,22.091,0,0,0-1.439-5.858,22.549,22.549,0,0,0-2.98-5.283c-3.793-5.13-1.947-3.894-9.888-15.053-5.706-8.026-8.855-12.513-13.9-18.32a86.581,86.581,0,0,0-8.822-9.211c-3.657-3.234-8.094-7.078-14.866-9.888A44.516,44.516,0,0,0,589,195.8Z" transform="translate(-585.574 -195.478)" fill="#494949" opacity="0.15"/>
      <path id="Path_11589" data-name="Path 11589" d="M823.507,486.3a19.37,19.37,0,0,1-1.219,4.622c-1.761,4.352-4.47,6.248-10.125,11.971-2.675,2.709-6.654,6.722-6.282,7.162.356.423,4.707-2.929,12.31-7.941,4.453-2.946,8.2-5.232,10.65-6.722Z" transform="translate(-765.713 -436.791)" fill="#494949" opacity="0.11"/>
      <path id="Path_11590" data-name="Path 11590" d="M905.987,543c-.237.051.339,1.9-.356,4.2-.508,1.693-1.371,2.506-3.488,5.063-.914,1.1-2.252,2.76-3.844,4.893l9.956-6.807C906.749,544.352,906.19,542.963,905.987,543Z" transform="translate(-842.504 -483.888)" fill="#494949" opacity="0.08"/>
    </g>
    <g id="guy" transform="translate(77.203 69.365)">
      <g id="leg_right" transform="translate(32.145 60.247)">
        <path id="Path_11591" data-name="Path 11591" d="M774.743,851.859a3.136,3.136,0,0,0,.525,1.354,11.024,11.024,0,0,0,4.69,3.861,52.91,52.91,0,0,0-1.778,7.6c-.474,3.065-1.033,6.637-.3,6.874.254.085,1-.152,7.924-13.867.965-1.913,1.761-3.5,2.286-4.589-3.691-1.659-7.365-3.336-11.057-4.995C776.673,848.371,774.557,849.912,774.743,851.859Z" transform="translate(-748.188 -809.278)" fill="#161616" stroke="#161616" stroke-width="2"/>
        <path id="Path_11592" data-name="Path 11592" d="M638.573,623.944a42.146,42.146,0,0,0-6.925,6.163A70.737,70.737,0,0,0,620.1,646.955a6.942,6.942,0,0,0,.965,2.692,12.249,12.249,0,0,0,2.692,2.692,39.645,39.645,0,0,1,2.9,2.98c1.676,1.727,4.03,3.031,8.669,5.588a71.788,71.788,0,0,0,9.922,4.724c1.185.423,2.184.745,2.9.965.339-1.575.745-3.251,1.253-5.012.457-1.575.948-3.048,1.439-4.419-3.607-2.641-7.315-5.6-11.074-8.957-1.3-1.151-2.557-2.32-3.759-3.471a66.047,66.047,0,0,1,5.1-5.486c.626-.61,1.947-1.863,3.556-3.183a47.253,47.253,0,0,1,9.329-5.875c.728-4.859-.135-9.4-2.794-10.87C647.868,617.493,642.823,621,638.573,623.944Z" transform="translate(-619.738 -618.817)" fill="#fff"/>
        <g id="Group_16929" data-name="Group 16929" transform="translate(0 7.59)">
          <g id="Group_16928" data-name="Group 16928">
            <path id="Path_11593" data-name="Path 11593" d="M633.379,663.7A58.605,58.605,0,0,0,618.9,682.091a7.2,7.2,0,0,0-.931,2.354,3.359,3.359,0,0,0,.931,2.184,35.316,35.316,0,0,0,3.793,4.318,46.655,46.655,0,0,0,9.787,7.044,131.347,131.347,0,0,0,13.495,6.214c.3.119.44-.372.135-.491-7.484-3.115-15.12-6.3-21.368-11.6a35.708,35.708,0,0,1-3.945-3.894,28.99,28.99,0,0,1-1.795-2.3,2.136,2.136,0,0,1-.508-1.575,6.2,6.2,0,0,1,.711-1.744,57.656,57.656,0,0,1,14.528-18.524c.254-.22-.1-.576-.356-.372Z" transform="translate(-617.965 -663.643)"/>
          </g>
        </g>
        <g id="Group_16931" data-name="Group 16931" transform="translate(14.726 13.454)">
          <g id="Group_16930" data-name="Group 16930">
            <path id="Path_11594" data-name="Path 11594" d="M719.981,698.313a57.612,57.612,0,0,0-15,14.07c-.186.271.254.525.44.254a57.03,57.03,0,0,1,14.815-13.9c.271-.152.017-.593-.254-.423Z" transform="translate(-704.934 -698.275)"/>
          </g>
        </g>
        <g id="Group_16933" data-name="Group 16933" transform="translate(15.895 25.749)">
          <g id="Group_16932" data-name="Group 16932">
            <path id="Path_11595" data-name="Path 11595" d="M711.917,771.316q7.137,6.451,14.7,12.377c.254.2.61-.152.356-.356q-7.568-5.918-14.7-12.377c-.237-.22-.593.135-.356.356Z" transform="translate(-711.838 -770.891)"/>
          </g>
        </g>
        <g id="Group_16935" data-name="Group 16935" transform="translate(28.174 38.312)">
          <g id="Group_16934" data-name="Group 16934">
            <path id="Path_11596" data-name="Path 11596" d="M786.875,845.257a64.625,64.625,0,0,0-2.506,9.228c-.068.322.423.457.491.135a66.946,66.946,0,0,1,2.506-9.228c.1-.3-.389-.44-.491-.135Z" transform="translate(-784.362 -845.085)"/>
          </g>
        </g>
        <path id="Path_11597" data-name="Path 11597" d="M695.8,687.194c-2.337.2-4.1,1.913-9.533,9.465-2.083,2.9-3.827,5.418-5.164,7.416,1.93,1.355,3.454,2.472,4.419,3.2,5.4,4.047,7.67,6.316,12.259,8.788,1,.542,1.829.931,2.32,1.151.389-1.067.779-2.133,1.151-3.2-1.287-1.117-2.574-2.218-3.877-3.336q-5.384-4.572-10.684-8.855a42.764,42.764,0,0,1,3.877-4.69,52.71,52.71,0,0,1,8.3-6.874c.8-.559,1.473-1,1.913-1.287A7.029,7.029,0,0,0,695.8,687.194Z" transform="translate(-670.41 -675.598)" fill="#494949" opacity="0.11"/>
        <path id="Path_11598" data-name="Path 11598" d="M711.426,713.4a16.434,16.434,0,0,0-5.384,2.32,17.634,17.634,0,0,0-6.942,9.871q3.911,3.048,8.093,6.129c2.709,2,5.4,3.894,8.026,5.723.389-.559.779-1.135,1.151-1.693a121.119,121.119,0,0,1-11.09-9.126c-1.185-1.084-2.32-2.184-3.4-3.268.593-.779,1.236-1.575,1.913-2.387A60.415,60.415,0,0,1,711.426,713.4Z" transform="translate(-685.362 -697.385)" fill="#494949" opacity="0.08"/>
      </g>
      <g id="leg_left" transform="translate(55.02 56.654)">
        <path id="Path_11599" data-name="Path 11599" d="M961.2,811.766l5.4,5.1c-.474,10.8.423,13.342,1.372,13.529,1.473.288,4-4.809,5.1-8.822a24.484,24.484,0,0,0,.83-7.535q-4.216-3.759-8.432-7.535C964.045,808.261,962.622,810.022,961.2,811.766Z" transform="translate(-925.959 -771.129)" fill="#161616" stroke="#161616" stroke-width="2"/>
        <path id="Path_11600" data-name="Path 11600" d="M753.072,607.776a6.937,6.937,0,0,0,2.117,4.521,6.165,6.165,0,0,0,3.268,1.439c.542.22,1.084.457,1.642.677.847,1.219,2.1,2.946,3.759,4.91,2.2,2.641,5.164,5.791,12.411,11.751,3.573,2.929,8.178,6.536,13.749,10.5a11.9,11.9,0,0,0,2.692-1.812,12.726,12.726,0,0,0,3.488-5.215c-.982-.948-2.438-2.37-4.131-4.131a189.529,189.529,0,0,1-16.356-19.539c-2.523-3.37-5.757-7.857-9.329-13.275C758.2,599.835,752.869,604.17,753.072,607.776Z" transform="translate(-753.067 -597.6)" fill="#fff"/>
        <g id="Group_16937" data-name="Group 16937" transform="translate(2.458 14.836)">
          <g id="Group_16936" data-name="Group 16936">
            <path id="Path_11601" data-name="Path 11601" d="M767.757,685.724c1.355.474,2.692.931,4.047,1.405.3.1.44-.389.135-.491-1.354-.474-2.692-.931-4.047-1.405-.3-.1-.44.389-.135.491Z" transform="translate(-767.585 -685.219)"/>
          </g>
        </g>
        <g id="Group_16939" data-name="Group 16939" transform="translate(6.073 15.879)">
          <g id="Group_16938" data-name="Group 16938">
            <path id="Path_11602" data-name="Path 11602" d="M788.98,691.738c6.366,8.754,14.612,15.831,23.163,22.384,2.455,1.879,4.944,3.742,7.433,5.588.271.2.508-.254.254-.44-8.568-6.349-17.186-12.784-24.467-20.606a77.548,77.548,0,0,1-5.926-7.179c-.2-.254-.643,0-.457.254Z" transform="translate(-788.935 -691.379)"/>
          </g>
        </g>
        <g id="Group_16941" data-name="Group 16941" transform="translate(16.063 4.066)">
          <g id="Group_16940" data-name="Group 16940">
            <path id="Path_11603" data-name="Path 11603" d="M847.979,621.986a195.383,195.383,0,0,0,20.2,25.923c2.15,2.337,4.368,4.605,6.62,6.824.237.237.593-.135.356-.356A195.267,195.267,0,0,1,853.7,629.453q-2.743-3.784-5.3-7.721c-.169-.271-.609-.017-.423.254Z" transform="translate(-847.934 -621.616)"/>
          </g>
        </g>
        <g id="Group_16943" data-name="Group 16943" transform="translate(36.766 36.689)">
          <g id="Group_16942" data-name="Group 16942">
            <path id="Path_11604" data-name="Path 11604" d="M976.082,814.457a11.289,11.289,0,0,1-5.74,6.908c-.3.135-.034.576.254.44a11.743,11.743,0,0,0,5.96-7.213c.119-.3-.372-.44-.474-.135Z" transform="translate(-970.208 -814.285)"/>
          </g>
        </g>
        <path id="Path_11605" data-name="Path 11605" d="M830.251,607.165c-.965-1.3-1.778-2.37-2.32-3.065a10.777,10.777,0,0,0-1.355,4.758c-.152,4.707,3.3,6.722,13.207,17.694,4.318,4.775,6.6,7.653,12.174,13.342,1.3,1.321,2.4,2.421,3.2,3.2.61-1.067,1.219-2.133,1.846-3.2-5.367-5.384-9.617-10.244-12.8-14.087-3.065-3.708-5.808-7.027-8.635-11.158C834.839,613.616,832.994,610.856,830.251,607.165Z" transform="translate(-814.126 -603)" fill="#494949" opacity="0.09"/>
        <path id="Path_11606" data-name="Path 11606" d="M866,650.3a29.457,29.457,0,0,0,1.693,5.452c2.794,6.57,6.925,9.346,14.358,17.558,1.422,1.575,3.623,4.064,6.2,7.281.593-.847,1.185-1.676,1.778-2.523-.542-.508-1.405-1.3-2.455-2.32-1.93-1.862-7.162-7.061-17.152-19.743C869.336,654.651,867.812,652.687,866,650.3Z" transform="translate(-846.878 -641.377)" fill="#494949" opacity="0.09"/>
      </g>
      <g id="hand_right" transform="translate(0 35.634)">
        <path id="Path_11613" data-name="Path 11613" d="M430,485.769a2,2,0,0,0-1.151,1.3,1.929,1.929,0,0,0,.508,1.592,1.716,1.716,0,0,0-.44,1.016,1.839,1.839,0,0,0,.8,1.456,1.381,1.381,0,0,0-.356,1.236,1.681,1.681,0,0,1,.8,1.812,1.387,1.387,0,0,0,1.236.576,1.635,1.635,0,0,0,1.371-1.016,3.836,3.836,0,0,0,2.32.508,4.011,4.011,0,0,0,1.659-.576,20.513,20.513,0,0,0,2.963,3.979,16.03,16.03,0,0,0,6.959,4.707c4.267,1.253,8.043-.373,10.21-1.3a21.566,21.566,0,0,0,9.787-8.838,24.527,24.527,0,0,0,2.963-7.755c.88-3.623.576-5.046.288-5.875-.169-.508-1.168-3.42-3.471-3.759a4.564,4.564,0,0,0-3.623,1.524,9.918,9.918,0,0,0-1.659,3.336c-.339.9-.559,1.575-.66,1.879-1.1,3.573-1.659,5.35-1.812,5.723a11.947,11.947,0,0,1-3.691,5.147,11.529,11.529,0,0,1-5.571,2.252,8.866,8.866,0,0,1-5.5-.508,8.061,8.061,0,0,1-3.556-3.691,13.8,13.8,0,0,1-1.084-4.859c-.152-1.693-.034-3.014-1.016-4.064-.186-.186-.626-.66-1.084-.576-.66.135-1.033,1.405-1.371,2.608-.288,1.016-.2,1.134-.44,1.371-.491.491-1.117.237-3.268.356A4.683,4.683,0,0,0,430,485.769Z" transform="translate(-428.702 -474.57)" fill="#fff"/>
        <g id="Group_16955" data-name="Group 16955" transform="translate(0 10.374)">
          <g id="Group_16954" data-name="Group 16954">
            <path id="Path_11614" data-name="Path 11614" d="M432.922,534.825c-1.829-.339-5.046.136-4.792,2.641.22,2.252,2.9,2.641,4.5,1.659.271-.169.017-.609-.254-.44-1.338.813-3.759.593-3.759-1.439,0-1.964,2.76-2.184,4.165-1.93.322.068.457-.423.135-.491Z" transform="translate(-428.116 -534.728)"/>
          </g>
        </g>
        <g id="Group_16957" data-name="Group 16957" transform="translate(0.016 13.857)">
          <g id="Group_16956" data-name="Group 16956">
            <path id="Path_11615" data-name="Path 11615" d="M428.65,555.382c-1.829,2.235,2.574,5.046,3.877,2.235.135-.288-.3-.559-.44-.254-1.016,2.167-4.4,0-3.065-1.625.2-.237-.152-.61-.372-.356Z" transform="translate(-428.211 -555.297)"/>
          </g>
        </g>
        <g id="Group_16959" data-name="Group 16959" transform="translate(0.383 16.085)">
          <g id="Group_16958" data-name="Group 16958">
            <path id="Path_11616" data-name="Path 11616" d="M430.551,568.579a1.887,1.887,0,0,0,.779,2.455,1.863,1.863,0,0,0,2.438-.813c.152-.288-.288-.542-.44-.254a1.386,1.386,0,0,1-1.744.627,1.353,1.353,0,0,1-.593-1.761c.135-.288-.3-.542-.44-.254Z" transform="translate(-430.378 -568.452)"/>
          </g>
        </g>
        <g id="Group_16961" data-name="Group 16961" transform="translate(0.957 18.239)">
          <g id="Group_16960" data-name="Group 16960">
            <path id="Path_11617" data-name="Path 11617" d="M433.771,581.416a1.69,1.69,0,0,0,3.285.745c.119-.3-.372-.44-.491-.136a1.194,1.194,0,0,1-1.439.762,1.251,1.251,0,0,1-.847-1.371c.017-.322-.491-.322-.508,0Z" transform="translate(-433.766 -581.175)"/>
          </g>
        </g>
        <g id="Group_16963" data-name="Group 16963" transform="translate(2.327 12.416)">
          <g id="Group_16962" data-name="Group 16962">
            <path id="Path_11618" data-name="Path 11618" d="M442.106,547.316a1.834,1.834,0,0,1,1.27.22.879.879,0,0,1,.356,1.1c-.152.288.288.542.44.254a1.341,1.341,0,0,0-.254-1.558,2.161,2.161,0,0,0-1.829-.525c-.3.051-.3.559.017.508Z" transform="translate(-441.862 -546.789)"/>
          </g>
        </g>
        <g id="Group_16965" data-name="Group 16965" transform="translate(3.833 18.594)">
          <g id="Group_16964" data-name="Group 16964">
            <path id="Path_11619" data-name="Path 11619" d="M451.069,584.244c.88-.322,1.727.406,2.641.3a5.008,5.008,0,0,0,1.879-.8c.271-.169.017-.609-.254-.44a3.044,3.044,0,0,1-2.641.593,2.54,2.54,0,0,0-1.761-.152c-.3.119-.186.61.135.491Z" transform="translate(-450.757 -583.275)"/>
          </g>
        </g>
        <g id="Group_16967" data-name="Group 16967" transform="translate(4.501 6.194)">
          <g id="Group_16966" data-name="Group 16966">
            <path id="Path_11620" data-name="Path 11620" d="M454.867,514.759c.88.3,2.066.356,2.557-.609.271-.542.1-1.2.22-1.778a3.149,3.149,0,0,1,1.185-1.913c.254-.2-.1-.559-.356-.356a3.714,3.714,0,0,0-1.3,2.133,14.358,14.358,0,0,1-.1,1.49c-.3.914-1.321.8-2.032.542a.26.26,0,0,0-.169.491Z" transform="translate(-454.697 -510.042)"/>
          </g>
        </g>
        <g id="Group_16969" data-name="Group 16969" transform="translate(8.077 6.15)">
          <g id="Group_16968" data-name="Group 16968">
            <path id="Path_11621" data-name="Path 11621" d="M476,510.273c1.439.186,1.625,2.608,1.863,3.708.288,1.439.44,2.9.711,4.334a7.007,7.007,0,0,0,3.911,5.164,10.189,10.189,0,0,0,7.111.373,12.283,12.283,0,0,0,6.451-3.911c.2-.254-.152-.61-.356-.356a12.012,12.012,0,0,1-6.807,3.928,8.819,8.819,0,0,1-7.484-1.287c-2.3-1.778-2.354-4.453-2.811-7.111a20.536,20.536,0,0,0-.864-3.793,2.111,2.111,0,0,0-1.575-1.541c-.339-.051-.474.44-.152.491Z" transform="translate(-475.82 -509.778)"/>
          </g>
        </g>
        <g id="Group_16971" data-name="Group 16971" transform="translate(7.827 6.962)">
          <g id="Group_16970" data-name="Group 16970">
            <path id="Path_11622" data-name="Path 11622" d="M474.4,527.024c2.049,2.506,4.03,5.367,6.739,7.213,2.658,1.795,5.943,1.981,9.025,1.473A21.122,21.122,0,0,0,504.8,524.925a27.969,27.969,0,0,0,3.234-10.108c.034-.322-.474-.322-.508,0-.779,6.045-3.42,11.971-8.127,15.967a19.645,19.645,0,0,1-8.043,4.148c-3.065.745-6.6.847-9.4-.8-2.98-1.744-5.063-4.859-7.2-7.484-.2-.237-.559.119-.356.373Z" transform="translate(-474.342 -514.575)"/>
          </g>
        </g>
        <g id="Group_16973" data-name="Group 16973" transform="translate(27.501)">
          <g id="Group_16972" data-name="Group 16972">
            <path id="Path_11623" data-name="Path 11623" d="M601.009,473.651a3.647,3.647,0,0,0-3.878,1.2,9.638,9.638,0,0,0-2.15,4.318,48.708,48.708,0,0,1-1.625,5.351,31.422,31.422,0,0,1-2.777,5.35c-.186.271.254.525.44.254a30.617,30.617,0,0,0,3.911-8.72,21.12,21.12,0,0,1,1.541-4.792c.813-1.49,2.54-3.217,4.4-2.472.3.119.44-.372.135-.491Z" transform="translate(-590.534 -473.457)"/>
          </g>
        </g>
        <g id="Group_16975" data-name="Group 16975" transform="translate(3.092 17.701)">
          <g id="Group_16974" data-name="Group 16974">
            <path id="Path_11624" data-name="Path 11624" d="M446.616,578.506c.474.034.373.83.288,1.117-.1.3.389.44.491.135.22-.643.068-1.693-.779-1.761-.322-.017-.322.491,0,.508Z" transform="translate(-446.375 -577.997)"/>
          </g>
        </g>
        <g id="Group_16977" data-name="Group 16977" transform="translate(3.132 16.332)">
          <g id="Group_16976" data-name="Group 16976">
            <path id="Path_11625" data-name="Path 11625" d="M447.1,570.233a1.02,1.02,0,0,1-.372,1.067c-.271.186-.017.626.254.44a1.522,1.522,0,0,0,.61-1.642c-.068-.322-.559-.186-.491.135Z" transform="translate(-446.616 -569.914)"/>
          </g>
        </g>
        <g id="Group_16979" data-name="Group 16979" transform="translate(3.782 14.425)">
          <g id="Group_16978" data-name="Group 16978">
            <path id="Path_11626" data-name="Path 11626" d="M450.579,559.115c.457.22.152.948-.068,1.236-.2.254.237.508.44.254.389-.508.593-1.592-.119-1.93-.288-.135-.542.3-.254.44Z" transform="translate(-450.452 -558.649)"/>
          </g>
        </g>
        <path id="Path_11627" data-name="Path 11627" d="M430.179,491.441c.271-.152.711.8,1.846,1.27.423.169.948.288,3.353,0,.779-.1,1.795-.237,3.014-.457a12.645,12.645,0,0,0,1.727,3.928,12.827,12.827,0,0,0,5.435,4.5,14.548,14.548,0,0,0,14.561-2.2c1.744-1.507,2.862-3.336,4.5-8.093a88.032,88.032,0,0,0,3.471-13.292,9.636,9.636,0,0,1,2.32,3.81,10.009,10.009,0,0,1,.339,4.284,21.837,21.837,0,0,1-4.047,10.058,21.065,21.065,0,0,1-8.551,7.518,19.766,19.766,0,0,1-8.669,1.626,9.889,9.889,0,0,1-3.149-.525c-1.27-.457-2.54-1.642-5.063-3.979a21.229,21.229,0,0,1-3.132-3.454c-.2-.288-.373-.542-.491-.711a2.247,2.247,0,0,1-1.473.44c-.8-.068-1.067-.643-1.727-.542-.576.085-.576.559-1.27.813a2.036,2.036,0,0,1-1.812-.22c-.372-.288-.423-.61-.847-2.438C430.111,491.983,429.993,491.543,430.179,491.441Z" transform="translate(-429.758 -476.483)" fill="#494949" opacity="0.11"/>
      </g>
      <g id="torso" transform="translate(35.859 28.734)">
        <path id="Path_11643" data-name="Path 11643" d="M639.9,440.448a47.442,47.442,0,0,0,1.642,7.247c2,6.366,4.352,9.092,7.467,16.475.779,1.846,1.879,4.622,2.963,8.127a21.442,21.442,0,0,0,10.329.762,22.308,22.308,0,0,0,13.173-7.789c-2.574-4.741-5.164-9.871-7.687-15.374-2.506-5.452-4.69-10.7-6.587-15.7a18.445,18.445,0,0,0-21.3,6.248Z" transform="translate(-639.9 -432.964)" fill="#ec615b"/>
        <path id="Path_11644" data-name="Path 11644" d="M727.7,432.7c.643,1.355,1.456,3.2,2.32,5.435a78.1,78.1,0,0,1,4.047,15.036,64.959,64.959,0,0,1,.339,19.54,15.484,15.484,0,0,0,5.2-1.033c3.149-1.253,5.435-3.437,7.636-5.554.508-.474.9-.9,1.151-1.151-.728-1.253-1.829-3.217-3.115-5.672-3.725-7.078-6.163-12.953-8.212-17.931-.728-1.744-1.727-4.25-2.9-7.281a17.061,17.061,0,0,0-3.471-1.033A19.517,19.517,0,0,0,727.7,432.7Z" transform="translate(-712.834 -432.7)" fill="#494949" opacity="0.13"/>
        <path id="Path_11645" data-name="Path 11645" d="M793.9,512c.288,3.031.525,5.571.694,7.4.643,7.162.762,9.143.813,10.413.135,3,.135,5.452.119,7.061a16.063,16.063,0,0,0,3.81-1.964,16.747,16.747,0,0,0,3.708-3.59Q798.472,521.643,793.9,512Z" transform="translate(-767.825 -498.573)" fill="#494949" opacity="0.1"/>
      </g>
      <g id="hand_left" transform="translate(47.901 25.174)">
        <path id="Path_11646" data-name="Path 11646" d="M713.854,413.013c-.813.237-1.253,1.405-1.524,2.608a14.853,14.853,0,0,0-.152,5.283,33.453,33.453,0,0,0,1.659,6.451,25.711,25.711,0,0,0,3.979,7.382,12.818,12.818,0,0,0,4.352,3.979c1.168.61,3.59,1.846,6.079.864a5.752,5.752,0,0,0,3.183-3.183,8.453,8.453,0,0,0,.22-1.879,18.08,18.08,0,0,0-.068-2.76,19.653,19.653,0,0,0-.8-3.759c-1.2-3.979-1.795-5.96-3.048-7.687-1.033-1.422-2.2-3.048-4.131-3.268a3.982,3.982,0,0,0-3.268,1.151,4.087,4.087,0,0,0-.728,2.9,9.035,9.035,0,0,0,1.524,4.2c.9,1.625,1.253,1.829,2.32,3.759,1.456,2.641,1.3,2.9,1.236,2.963-.288.254-1.439-.542-1.693-.728a5.866,5.866,0,0,1-1-.864,12.751,12.751,0,0,1-2.1-3.691,58.257,58.257,0,0,1-2.54-5.791,7.37,7.37,0,0,1,1.084-2.387,5.484,5.484,0,0,0,1.372-2.387,2.923,2.923,0,0,0,0-.948.859.859,0,0,0-.864-1.456.937.937,0,0,0-1.524-.66,2.2,2.2,0,0,0-1.236-.508,6.668,6.668,0,0,0-1.371.22A9.794,9.794,0,0,1,713.854,413.013Z" transform="translate(-711.843 -412.433)" fill="#fff"/>
        <g id="Group_17009" data-name="Group 17009" transform="translate(5.366 2.221)">
          <g id="Group_17008" data-name="Group 17008">
            <path id="Path_11647" data-name="Path 11647" d="M743.609,430.3a23.111,23.111,0,0,1,1.659-3.217c.322-.542.694-1.219.254-1.812-1-1.287-2.353.356-2.777,1.2-.152.288.288.542.44.254.254-.508.542-1.134,1.134-1.3a.7.7,0,0,1,.525-.034c.051.389.1.779.169,1.168a4.171,4.171,0,0,1-.474.779,21.671,21.671,0,0,0-1.388,2.811c-.152.322.339.44.457.152Z" transform="translate(-742.713 -424.793)"/>
          </g>
        </g>
        <g id="Group_17011" data-name="Group 17011" transform="translate(0 0.177)">
          <g id="Group_17010" data-name="Group 17010">
            <path id="Path_11648" data-name="Path 11648" d="M711.746,422.451a21.905,21.905,0,0,1-.085-5.469c.186-1.659.542-4.182,2.845-3.708.322.068.457-.423.135-.491-1.812-.372-2.946.914-3.251,2.557a22.14,22.14,0,0,0-.135,7.247c.051.322.542.186.491-.135Z" transform="translate(-711.021 -412.718)"/>
          </g>
        </g>
        <g id="Group_17013" data-name="Group 17013" transform="translate(2.392)">
          <g id="Group_17012" data-name="Group 17012">
            <path id="Path_11649" data-name="Path 11649" d="M725.6,413.779a3.553,3.553,0,0,1,.745-1.236c.61-.593,1.388-.271,2.049.051.288.152.542-.288.254-.44a2.382,2.382,0,0,0-2.218-.3,3.149,3.149,0,0,0-1.253,1.659c-.135.322.3.576.423.271Z" transform="translate(-725.149 -411.675)"/>
          </g>
        </g>
        <g id="Group_17015" data-name="Group 17015" transform="translate(3.932 0.503)">
          <g id="Group_17014" data-name="Group 17014">
            <path id="Path_11650" data-name="Path 11650" d="M734.658,416.4c.626-.813,1.456-1.659,2.54-1.016a.254.254,0,0,0,.254-.44c-1.287-.762-2.37.068-3.149,1.084-.2.271.152.626.356.373Z" transform="translate(-734.242 -414.647)"/>
          </g>
        </g>
        <g id="Group_17017" data-name="Group 17017" transform="translate(5.058 1.129)">
          <g id="Group_17016" data-name="Group 17016">
            <path id="Path_11651" data-name="Path 11651" d="M741.316,419.844a3.2,3.2,0,0,1,1.1-.863c.525-.22,1.49-.085,1.287.711a.255.255,0,0,0,.491.135,1.185,1.185,0,0,0-.982-1.456,2.642,2.642,0,0,0-2.252,1.118c-.22.237.135.593.356.356Z" transform="translate(-740.891 -418.344)"/>
          </g>
        </g>
        <g id="Group_17019" data-name="Group 17019" transform="translate(5.464 7.337)">
          <g id="Group_17018" data-name="Group 17018">
            <path id="Path_11652" data-name="Path 11652" d="M743.513,455.142c-.593,1.27.136,2.557.643,3.725a40.878,40.878,0,0,0,2.37,4.809c1.185,2,3.759,5.588,6.451,3.539.254-.2,0-.643-.254-.44-2.591,1.981-4.995-2.015-6.045-3.86-.61-1.084-1.151-2.2-1.659-3.336s-1.642-2.912-1.05-4.182c.119-.288-.322-.559-.457-.254Z" transform="translate(-743.291 -455.008)"/>
          </g>
        </g>
        <g id="Group_17021" data-name="Group 17021" transform="translate(7.576 6)">
          <g id="Group_17020" data-name="Group 17020">
            <path id="Path_11653" data-name="Path 11653" d="M756.057,447.3c-1.49,5.063,3.082,8.991,4.758,13.325.119.3.609.169.491-.135-1.625-4.2-6.2-8.161-4.758-13.055a.255.255,0,0,0-.491-.135Z" transform="translate(-755.763 -447.114)"/>
          </g>
        </g>
        <g id="Group_17023" data-name="Group 17023" transform="translate(0.213 9.455)">
          <g id="Group_17022" data-name="Group 17022">
            <path id="Path_11654" data-name="Path 11654" d="M712.282,467.833a30.052,30.052,0,0,0,5.842,13.038c1.439,1.829,3.082,3.607,5.35,4.351,1.93.627,4.589.948,6.383-.22,1.964-1.253,2.218-3.81,2.3-5.926.017-.322-.491-.322-.508,0-.1,2.726-.711,5.74-3.945,6.129a9.1,9.1,0,0,1-7.772-2.98,28.979,28.979,0,0,1-7.179-14.528c-.034-.322-.525-.186-.474.135Z" transform="translate(-712.278 -467.514)"/>
          </g>
        </g>
        <g id="Group_17025" data-name="Group 17025" transform="translate(7.694 4.373)">
          <g id="Group_17024" data-name="Group 17024">
            <path id="Path_11655" data-name="Path 11655" d="M756.977,439.992c.542-2.167,3.149-2.32,4.775-1.371a10.078,10.078,0,0,1,3.623,4.385,42.559,42.559,0,0,1,2.1,5.52,14.264,14.264,0,0,1,.864,6.62c-.051.322.44.457.491.135a15.629,15.629,0,0,0-1.067-7.5,30.207,30.207,0,0,0-2.777-6.5c-1.067-1.693-2.658-3.454-4.758-3.742a3.324,3.324,0,0,0-3.759,2.32.263.263,0,0,0,.508.135Z" transform="translate(-756.462 -437.503)"/>
          </g>
        </g>
        <path id="Path_11656" data-name="Path 11656" d="M714.148,412.7a3.867,3.867,0,0,1,3,.2,15.311,15.311,0,0,0-3.132,8.568c-.254,6.1,3.386,10.142,4.673,11.581,1.659,1.846,3.827,4.25,6.62,3.911a5.3,5.3,0,0,0,3.827-2.574c.762-1.338.711-2.794-.2-6.553-1.405-5.689-2.946-9.025-2.726-9.126s2.049,2.76,3.42,6.349A31.154,31.154,0,0,1,731.3,432.6c.254,2.557.034,3.607-.491,4.538a5.567,5.567,0,0,1-2.641,2.3,6.837,6.837,0,0,1-4.944-.068c-3.336-1.118-5.113-3.827-6.908-6.553a29.693,29.693,0,0,1-4.25-11.294c-.508-2.4-.847-5.2.423-7.247A3.331,3.331,0,0,1,714.148,412.7Z" transform="translate(-711.51 -412.342)" fill="#494949" opacity="0.1"/>
      </g>
      <g id="head" transform="translate(23.24)">
        <path id="Path_11657" data-name="Path 11657" d="M582.172,329.191a10.076,10.076,0,0,0,.847,3.488,17.141,17.141,0,0,0,3.234,6.282c1.168,1.355,2.591,3.014,5.012,3.488a7.545,7.545,0,0,0,4.335-.508,10.5,10.5,0,0,0,.762,1.609,11.881,11.881,0,0,0,2.726,3.234,5.2,5.2,0,0,0,2.9-1.27,5.9,5.9,0,0,0,1.439-2.2,7.456,7.456,0,0,0,.508-1.693,7.851,7.851,0,0,1-1.609-1.27,8.491,8.491,0,0,1-2.286-4.758c.22-1.947.457-3.911.677-5.858a1.84,1.84,0,0,0,1.27-.254,2.275,2.275,0,0,0,.762-1.609,4.157,4.157,0,0,0-.085-2.472c-.169-.423-.711-1.778-1.862-1.863a2.252,2.252,0,0,0-2.032,1.27,10.211,10.211,0,0,0-6.028-2.9C587.641,321.437,582.46,325.416,582.172,329.191Z" transform="translate(-579.323 -311.904)" fill="#fff"/>
        <path id="Path_11658" data-name="Path 11658" d="M626.464,386.461c-.135.356.254.864.542,1.117a3.154,3.154,0,0,0,3.217.186,4.171,4.171,0,0,0,2.083-2.726,2.924,2.924,0,0,0,.051-2.472A2.461,2.461,0,0,0,630.9,381.5c-.288.593-.508,1.033-.677,1.321a6.521,6.521,0,0,0-.389.745,3.708,3.708,0,0,1-.423.813,5.476,5.476,0,0,1-2.286,1.71C626.819,386.156,626.549,386.224,626.464,386.461Z" transform="translate(-616.097 -361.436)"/>
        <g id="Group_17027" data-name="Group 17027" transform="translate(3.11 17.486)">
          <g id="Group_17026" data-name="Group 17026">
            <path id="Path_11659" data-name="Path 11659" d="M583.751,368.108c1.338,4.182,3.014,9.059,7.331,11.023a7.07,7.07,0,0,0,5.655.169c2.015-.863,3.2-2.862,4.013-4.792a17.72,17.72,0,0,0,1.355-7.992c-.017-.322-.525-.322-.508,0a17.28,17.28,0,0,1-1.541,8.3c-1.168,2.523-3.014,4.538-5.977,4.5-5.96-.068-8.381-6.637-9.871-11.328a.237.237,0,1,0-.457.119Z" transform="translate(-583.74 -366.275)"/>
          </g>
        </g>
        <g id="Group_17029" data-name="Group 17029" transform="translate(19.121 11.434)">
          <g id="Group_17028" data-name="Group 17028">
            <path id="Path_11660" data-name="Path 11660" d="M678.808,332.473a1.509,1.509,0,0,1,2-1.338,2.616,2.616,0,0,1,1.592,1.981,5.162,5.162,0,0,1-.152,2.54c-.2.643-.457.982-1.236.982-.271,0-.542-.1-.83-.1a.254.254,0,0,0,0,.508c.576,0,1.134.271,1.693-.017a1.846,1.846,0,0,0,.813-1.033,5.117,5.117,0,0,0-.068-3.844,2.671,2.671,0,0,0-2.523-1.609,1.974,1.974,0,0,0-1.795,1.913.254.254,0,0,0,.508.017Z" transform="translate(-678.3 -330.531)"/>
          </g>
        </g>
        <g id="Group_17031" data-name="Group 17031" transform="translate(20.626 22.414)">
          <g id="Group_17030" data-name="Group 17030">
            <path id="Path_11661" data-name="Path 11661" d="M687.193,395.616a8.985,8.985,0,0,0,3.386,7.213c.254.2.61-.152.356-.356a8.48,8.48,0,0,1-3.234-6.857.254.254,0,0,0-.508,0Z" transform="translate(-687.191 -395.375)"/>
          </g>
        </g>
        <g id="Group_17033" data-name="Group 17033" transform="translate(16.241 29.933)">
          <g id="Group_17032" data-name="Group 17032">
            <path id="Path_11662" data-name="Path 11662" d="M661.31,440.093a11.217,11.217,0,0,0,3.1,4.589c.237.22.61-.135.356-.356a10.778,10.778,0,0,1-2.98-4.368c-.1-.3-.593-.169-.474.135Z" transform="translate(-661.292 -439.785)"/>
          </g>
        </g>
        <g id="Group_17035" data-name="Group 17035" transform="translate(19.303 29.108)">
          <g id="Group_17034" data-name="Group 17034">
            <path id="Path_11663" data-name="Path 11663" d="M679.552,440.8c1.456.525,2.912-.711,3.81-1.744.948-1.084,1.778-2.489,1.372-3.962a.255.255,0,0,0-.491.135,3.95,3.95,0,0,1-1.253,3.471c-.779.88-2.049,2.066-3.319,1.609-.288-.119-.423.372-.119.491Z" transform="translate(-679.379 -434.914)"/>
          </g>
        </g>
        <g id="Group_17037" data-name="Group 17037" transform="translate(4.432 14.633)">
          <g id="Group_17036" data-name="Group 17036">
            <path id="Path_11664" data-name="Path 11664" d="M592.135,352.333c-.22-.626.288-1.3.66-1.744a1.281,1.281,0,0,1,2.066-.169,6.023,6.023,0,0,1,1.05,3.319c.068.728-.186,1.659.237,2.3a3.239,3.239,0,0,0,2.1,1.253c.322.068.457-.423.135-.491a3.3,3.3,0,0,1-1.168-.457,1.64,1.64,0,0,1-.762-1.575,13.764,13.764,0,0,0-.135-1.863,4.987,4.987,0,0,0-1.3-3.048,1.692,1.692,0,0,0-2.286.017c-.66.576-1.422,1.676-1.1,2.574.135.322.627.186.508-.118Z" transform="translate(-591.551 -349.424)"/>
          </g>
        </g>
        <g id="Group_17039" data-name="Group 17039" transform="translate(9.198 11.345)">
          <g id="Group_17038" data-name="Group 17038">
            <path id="Path_11665" data-name="Path 11665" d="M620.206,332.543a2.116,2.116,0,0,1,3.86-1.118c.186.271.626.017.44-.254a2.627,2.627,0,0,0-4.809,1.372c-.017.322.491.322.508,0Z" transform="translate(-619.698 -330.003)"/>
          </g>
        </g>
        <g id="Group_17041" data-name="Group 17041" transform="translate(6.413 17.556)">
          <g id="Group_17040" data-name="Group 17040">
            <path id="Path_11666" data-name="Path 11666" d="M604.238,368.025a1.913,1.913,0,0,1-.389-1.067c-.135.068-.254.152-.389.22a1.245,1.245,0,0,1,.576,1.118,3.9,3.9,0,0,1,.322-.237.971.971,0,0,1-.61-1.067c-.119.051-.254.1-.372.152a1.29,1.29,0,0,1,.491.508,1.021,1.021,0,0,1,.1.322c0,.085,0-.017-.017-.051-.034-.068-.068-.119-.1-.186-.135-.3-.576-.034-.44.254a.712.712,0,0,0,.576.508.47.47,0,0,0,.508-.406,1.573,1.573,0,0,0-.847-1.371.249.249,0,0,0-.372.152,1.5,1.5,0,0,0,.965,1.693.251.251,0,0,0,.322-.237,1.751,1.751,0,0,0-.83-1.558.266.266,0,0,0-.389.22,2.349,2.349,0,0,0,.457,1.321c.2.237.643-.017.44-.288Z" transform="translate(-603.247 -366.685)"/>
          </g>
        </g>
        <g id="Group_17043" data-name="Group 17043" transform="translate(11.285 14.227)">
          <g id="Group_17042" data-name="Group 17042">
            <path id="Path_11667" data-name="Path 11667" d="M632.883,348.425a.9.9,0,0,1-.186-.356c0-.034-.034-.237,0-.254s.119.254.135.271a.563.563,0,0,1-.051.406,2.7,2.7,0,0,1,.356-.085,1.1,1.1,0,0,1-.559-1.151c-.135.068-.254.152-.389.22a1.044,1.044,0,0,1,.627,1.2c.1-.051.2-.119.3-.169a.765.765,0,0,1-.508-.576c0-.017,0-.169-.017-.169a.821.821,0,0,1-.119.051c.017.034.051.085.068.119a1.31,1.31,0,0,1,.051.576c.152-.068.288-.119.44-.186a1.139,1.139,0,0,1-.356-.44c-.152-.288-.593-.034-.44.254a1.68,1.68,0,0,0,.44.542.261.261,0,0,0,.44-.186,1.354,1.354,0,0,0-.254-1.05.43.43,0,0,0-.711.085c-.271.593.3,1.287.83,1.473a.235.235,0,0,0,.3-.169,1.516,1.516,0,0,0-.863-1.778.266.266,0,0,0-.389.22,1.615,1.615,0,0,0,.813,1.592.271.271,0,0,0,.356-.085,1.275,1.275,0,0,0,.051-.965c-.1-.254-.322-.525-.609-.491-.745.085-.423,1.151-.119,1.49.22.22.576-.152.356-.389Z" transform="translate(-632.024 -347.023)"/>
          </g>
        </g>
        <g id="Group_17045" data-name="Group 17045" transform="translate(16.477 26.549)">
          <g id="Group_17044" data-name="Group 17044">
            <path id="Path_11668" data-name="Path 11668" d="M662.772,423.44c0,.017,0,.017-.017.034.1-.051.2-.119.3-.169-.017,0-.034-.017-.051-.017.051.119.1.254.152.373.034-.068.491-.288.627-.406a5.145,5.145,0,0,0,.8-.914,9.733,9.733,0,0,0,1.236-2.252c-.169-.051-.322-.085-.491-.135-.508,1.456-.864,3.488-2.286,4.352l.356.356c.339-.508.677-1.033,1.016-1.541a.257.257,0,0,0-.406-.3l-.83.88.356.356c.254-.3.491-.626.711-.948.169-.237-.2-.525-.406-.3a2.642,2.642,0,0,1-.779.593c.135.068.254.152.389.22,0-.051-.017-.1-.017-.152-.034-.322-.542-.322-.508,0,0,.051.017.1.017.152a.262.262,0,0,0,.389.22,3.4,3.4,0,0,0,.881-.677l-.406-.3c-.2.288-.406.576-.626.847-.2.254.135.61.356.356l.83-.88-.406-.3c-.339.508-.677,1.033-1.016,1.541a.264.264,0,0,0,.356.356c1.558-.948,1.964-3.048,2.523-4.656.1-.322-.372-.423-.491-.135a8.931,8.931,0,0,1-1.422,2.421c-.288.339-.745.525-1.016.83-.068.068-.135.085-.169.169a.252.252,0,0,0,.152.373c.017,0,.034.017.051.017a.242.242,0,0,0,.3-.169c0-.017,0-.017.017-.034.135-.3-.356-.44-.474-.135Z" transform="translate(-662.685 -419.8)"/>
          </g>
        </g>
        <g id="Group_17047" data-name="Group 17047" transform="translate(17.172 28.831)">
          <g id="Group_17046" data-name="Group 17046">
            <path id="Path_11669" data-name="Path 11669" d="M668.062,434.126a1.245,1.245,0,0,0,.3-.542c.085-.3-.3-.406-.457-.2l-1.067,1.422c-.2.254.237.508.44.254l1.067-1.422-.457-.2a.844.844,0,0,1-.169.322c-.237.271.135.627.339.373Z" transform="translate(-666.791 -433.276)"/>
          </g>
        </g>
        <g id="Group_17049" data-name="Group 17049" transform="translate(9.92 19.826)">
          <g id="Group_17048" data-name="Group 17048">
            <path id="Path_11670" data-name="Path 11670" d="M624.662,385.749c-.474-.948.034-1.3.982-1.558a1.983,1.983,0,0,0,.339-.1,1.793,1.793,0,0,0,.813-.982,12.23,12.23,0,0,1,.779-1.727c.745-1.134,2.066-1.084,2.489.271a4.218,4.218,0,0,1-1,3.894,3.933,3.933,0,0,1-1.625,1.2,2.008,2.008,0,0,1-1.592-.1c-.389-.169-1.1-.508-1.2-.948-.068-.322-.559-.186-.491.135.186.88,1.507,1.422,2.3,1.541a3.034,3.034,0,0,0,2.337-.83,4.846,4.846,0,0,0,1.676-5.232c-.762-2.015-2.828-1.27-3.589.322-.237.491-.356,1.321-.745,1.676-.491.457-1.118.288-1.625.643a1.586,1.586,0,0,0-.288,2.1c.152.254.593,0,.44-.3Z" transform="translate(-623.962 -380.092)"/>
          </g>
        </g>
        <g id="Group_17051" data-name="Group 17051" transform="translate(10.041 19.897)">
          <g id="Group_17050" data-name="Group 17050">
            <path id="Path_11671" data-name="Path 11671" d="M624.916,385.574c2.625-.068,3.894-2.506,4.47-4.741a.255.255,0,0,0-.491-.135c-.508,2-1.609,4.3-3.979,4.368-.322.017-.322.525,0,.508Z" transform="translate(-624.675 -380.514)"/>
          </g>
        </g>
        <path id="Path_11672" data-name="Path 11672" d="M568.7,282.048c-.3.169-2.15-1.846-2.929-4.538a10.353,10.353,0,0,1-.2-4.809,14.713,14.713,0,0,1,1.253-2.794A16.98,16.98,0,0,1,574.979,263a9.8,9.8,0,0,0-1.321,1.541,10.207,10.207,0,0,0-1.253,2.3,20.81,20.81,0,0,1,1.947-1.456,24.7,24.7,0,0,1,4.47-2.37c-.2.864-.423,1.727-.626,2.574.474-.271,1.134-.66,1.947-1.05.9-.423,2.743-1.3,3.031-.914.085.119-.017.254-.169.745a7.315,7.315,0,0,0-.3,1.541,13.237,13.237,0,0,1,1.761-.169,14.077,14.077,0,0,1,1.93.051c-.2.779-.406,1.541-.61,2.32a5.911,5.911,0,0,1,1.575.914,6.35,6.35,0,0,1,2.167,3.759,7.356,7.356,0,0,1-.457,3.81c-.813-1.727-2.421-2.4-3.336-1.981a2.1,2.1,0,0,0-1.134,1.9,1.61,1.61,0,0,0,.119.474,15.481,15.481,0,0,0-2.658-1.947,10.858,10.858,0,0,0-4.2-1.659,9.262,9.262,0,0,0-6.468,1.846c-1.05.745-2.76,1.947-3.065,3.86C568.02,280.694,568.934,281.93,568.7,282.048Z" transform="translate(-565.374 -263)" fill="#409b94"/>
        <path id="Path_11673" data-name="Path 11673" d="M647.56,288.571a22.332,22.332,0,0,1,1.625,5.35,15.391,15.391,0,0,1-.322,8.551,12.922,12.922,0,0,1-3.793,5.283,5.762,5.762,0,0,0,2.54-.66,5.842,5.842,0,0,0,2.608-2.811,12.892,12.892,0,0,1,2.675,3.725,12.759,12.759,0,0,1,.914,2.607,5.652,5.652,0,0,0,1.693-2.675,5.332,5.332,0,0,0,.2-1.439,6.9,6.9,0,0,1-1.964-1.625,7.52,7.52,0,0,1-1.575-4.707c.034-.948.237-.965.389-2.421a15.831,15.831,0,0,0,0-3.132,1.616,1.616,0,0,0,1.507.068c.389-.237.491-.66.846-2.811.186-1.151.288-1.727.322-2.032a12.922,12.922,0,0,0,.2-3.132,6.383,6.383,0,0,0-1.9-3.522,6.266,6.266,0,0,0-1.829-1.236c.2-.711.389-1.439.593-2.15a19.664,19.664,0,0,1-2.472,2.421c-1.524,1.219-2.4,1.507-3.454,2.675a8.934,8.934,0,0,0-1.575,2.472C645.731,287.792,646.646,288.181,647.56,288.571Z" transform="translate(-631.352 -276.955)" fill="#494949" opacity="0.11"/>
        <path id="Path_11674" data-name="Path 11674" d="M601.075,264.1a6.606,6.606,0,0,0-2.878,2.472,6.29,6.29,0,0,0-.914,2.608,6.771,6.771,0,0,0,.389,3.132,13.325,13.325,0,0,1,1.761-6.011A13.528,13.528,0,0,1,601.075,264.1Z" transform="translate(-591.843 -263.914)" fill="#494949" opacity="0.17"/>
        <path id="Path_11675" data-name="Path 11675" d="M677.143,367.8c-.051-.017-.152.169-.525,1.456-.508,1.744-.779,3.031-.931,3.674a22.4,22.4,0,0,1-1.287,3.844c1.2.237,2.4.474,3.607.694a13.616,13.616,0,0,1-1.168-4.081C676.517,370.419,677.312,367.829,677.143,367.8Z" transform="translate(-655.94 -350.05)" fill="#494949" opacity="0.08"/>
      </g>
    </g>
  </g>
</svg>
