<svg xmlns="http://www.w3.org/2000/svg" xmlns:xlink="http://www.w3.org/1999/xlink" width="165" height="167" viewBox="0 0 165 167">
  <defs>
    <filter id="Ellipse_9" x="0" y="0" width="165" height="167" filterUnits="userSpaceOnUse">
      <feOffset dy="10" input="SourceAlpha"/>
      <feGaussianBlur stdDeviation="15" result="blur"/>
      <feFlood flood-color="#425965" flood-opacity="0.161"/>
      <feComposite operator="in" in2="blur"/>
      <feComposite in="SourceGraphic"/>
    </filter>
  </defs>
  <g id="school_attendnace" data-name="school attendnace" transform="translate(-120.999 -131)">
    <g id="icn_surfing" transform="translate(165.619 166)">
      <g transform="matrix(1, 0, 0, 1, -44.62, -35)" filter="url(#Ellipse_9)">
        <ellipse id="Ellipse_9-2" data-name="Ellipse 9" cx="37.5" cy="38.5" rx="37.5" ry="38.5" transform="translate(45 35)" fill="#fff"/>
      </g>
    </g>
    <g id="power_of_pen" data-name="power of pen" transform="translate(155 171.616)">
      <path id="Path_11512" data-name="Path 11512" d="M0,47.277Z" transform="translate(5.386 -17.816)" fill="#1895de"/>
      <path id="Path_5" data-name="Path 5" d="M125.143,221.094H191.6v10.925H125.143a5.463,5.463,0,0,1-5.463-5.463h0A5.463,5.463,0,0,1,125.143,221.094Z" transform="translate(-119.68 -214.677)" fill="#d7182e"/>
      <path id="Path_6" data-name="Path 6" d="M119.928,234.357a5.456,5.456,0,0,0-.248,1.63h0a5.463,5.463,0,0,0,5.463,5.463H191.6v-3.261H125.143a5.465,5.465,0,0,1-5.215-3.832Z" transform="translate(-119.68 -224.185)" fill="#890c27" opacity="0.93"/>
      <path id="Path_7" data-name="Path 7" d="M125.143,221.094a5.463,5.463,0,0,0-5.463,5.463h0a5.466,5.466,0,0,0,.136,1.2,5.461,5.461,0,0,1,5.327-4.266H191.6v-2.394Z" transform="translate(-119.68 -214.648)" fill="#ffa663" opacity="0.67"/>
      <path id="Path_8" data-name="Path 8" d="M125.143,221.094H191.6v10.925H125.143a5.463,5.463,0,0,1-5.463-5.463h0A5.463,5.463,0,0,1,125.143,221.094Z" transform="translate(-119.68 -214.677)" fill="none" stroke="#020129" stroke-linecap="round" stroke-linejoin="round" stroke-width="1"/>
      <rect id="Rectangle_3" data-name="Rectangle 3" width="4.238" height="14.223" transform="translate(69.815 4.791)" fill="#ffdc7b"/>
      <rect id="Rectangle_4" data-name="Rectangle 4" width="4.238" height="3.397" transform="translate(69.815 4.838)" fill="#fff" opacity="0.43"/>
      <rect id="Rectangle_5" data-name="Rectangle 5" width="4.238" height="4.347" transform="translate(69.815 14.494)" fill="#f48d31"/>
      <rect id="Rectangle_6" data-name="Rectangle 6" width="4.238" height="14.223" transform="translate(69.815 4.791)" fill="none" stroke="#020129" stroke-linecap="round" stroke-linejoin="round" stroke-width="1"/>
      <rect id="Rectangle_7" data-name="Rectangle 7" width="4.238" height="14.223" transform="translate(11.519 4.791)" fill="#ffdc7b"/>
      <rect id="Rectangle_8" data-name="Rectangle 8" width="4.238" height="3.397" transform="translate(11.519 4.862)" fill="#fff" opacity="0.43"/>
      <rect id="Rectangle_9" data-name="Rectangle 9" width="4.238" height="4.347" transform="translate(11.519 14.519)" fill="#f48d31"/>
      <rect id="Rectangle_10" data-name="Rectangle 10" width="4.238" height="14.223" transform="translate(11.519 4.791)" fill="none" stroke="#020129" stroke-linecap="round" stroke-linejoin="round" stroke-width="1"/>
      <path id="Path_9" data-name="Path 9" d="M383.32,220.6l8.705,5.934,19.212-9.219-19.277-9.219-8.64,5.934Z" transform="translate(-310.228 -205.378)" fill="#f48d31"/>
      <path id="Path_10" data-name="Path 10" d="M383.32,243.285l8.7,5.934L411.237,240H383.32Z" transform="translate(-310.228 -228.259)" fill="#ee6e31"/>
      <path id="Path_11" data-name="Path 11" d="M383.32,241.406l9.037,3.059L411.237,240l-19.212,9.219-8.705-5.934Z" transform="translate(-310.228 -228.259)" fill="#e65331"/>
      <path id="Path_12" data-name="Path 12" d="M383.084,215.868l9.037-5.011,16.389,6.428-16.721-9.23-8.7,5.934Z" transform="translate(-310.051 -205.291)" fill="#ffe085"/>
      <path id="Path_13" data-name="Path 13" d="M383.32,220.6l8.705,5.934,19.212-9.219-19.277-9.219-8.64,5.934Z" transform="translate(-310.228 -205.378)" fill="none" stroke="#020129" stroke-linecap="round" stroke-linejoin="round" stroke-width="1"/>
      <line id="Line_1" data-name="Line 1" x1="16.18" transform="translate(84.926 11.811)" fill="none" stroke="#020129" stroke-linecap="round" stroke-linejoin="round" stroke-width="1"/>
      <ellipse id="Ellipse_4" data-name="Ellipse 4" cx="2.394" cy="2.394" rx="2.394" ry="2.394" transform="translate(83.373 9.445)" fill="#020129"/>
      <rect id="Rectangle_11" data-name="Rectangle 11" width="21.67" height="37.771" transform="translate(36.008 29.967)" fill="#ffa183"/>
      <rect id="Rectangle_12" data-name="Rectangle 12" width="21.67" height="37.771" transform="translate(36.008 29.967)" fill="#f9a991"/>
      <path id="Path_14" data-name="Path 14" d="M249.1,316.615a15.02,15.02,0,0,0,6.886,1.666h7.9a15.019,15.019,0,0,0,6.886-1.666V306.394H249.1Z" transform="translate(-213.091 -276.027)" fill="#ffa183" opacity="0.58"/>
      <rect id="Rectangle_13" data-name="Rectangle 13" width="21.67" height="37.771" transform="translate(36.008 29.967)" fill="none" stroke="#020129" stroke-linecap="round" stroke-linejoin="round" stroke-width="1"/>
      <path id="Path_15" data-name="Path 15" d="M228.6,228.453h33.517v19.286a12.809,12.809,0,0,1-12.809,12.809h-7.9A12.809,12.809,0,0,1,228.6,247.739Z" transform="translate(-198.5 -220.159)" fill="#f9a991"/>
      <path id="Path_16" data-name="Path 16" d="M249.306,293.85h-7.9A12.809,12.809,0,0,1,228.6,281.041v4.09a12.809,12.809,0,0,0,12.81,12.809h7.9a12.809,12.809,0,0,0,12.81-12.81V281.04A12.81,12.81,0,0,1,249.306,293.85Z" transform="translate(-198.5 -257.851)" fill="#f98568"/>
      <path id="Path_17" data-name="Path 17" d="M228.6,228.453h33.517v19.286a12.809,12.809,0,0,1-12.809,12.809h-7.9A12.809,12.809,0,0,1,228.6,247.739Z" transform="translate(-198.5 -220.159)" fill="none" stroke="#020129" stroke-linecap="round" stroke-linejoin="round" stroke-width="1"/>
      <rect id="Rectangle_14" data-name="Rectangle 14" width="8.379" height="17.876" rx="4.19" transform="translate(30.426 2.213)" fill="#f9a991"/>
      <rect id="Rectangle_15" data-name="Rectangle 15" width="8.379" height="19.76" rx="4.19" transform="translate(38.569 0.341)" fill="#f9a991"/>
      <rect id="Rectangle_16" data-name="Rectangle 16" width="8.379" height="20.109" rx="4.19" transform="translate(46.712 0)" fill="#f9a991"/>
      <rect id="Rectangle_17" data-name="Rectangle 17" width="8.379" height="16.917" rx="4.19" transform="translate(54.854 2.529)" fill="#f9a991"/>
      <path id="Path_18" data-name="Path 18" d="M233.841,245.475h-2.1a3.137,3.137,0,0,1-3.136-3.139v3.272a4.19,4.19,0,0,0,8.379,0v-3.272A3.138,3.138,0,0,1,233.841,245.475Z" transform="translate(-198.173 -229.924)" fill="#f98568"/>
      <path id="Path_19" data-name="Path 19" d="M262.841,245.365h-2.1a3.137,3.137,0,0,1-3.136-3.137V245.5a4.19,4.19,0,1,0,8.379,0v-3.272a3.137,3.137,0,0,1-3.138,3.137Z" transform="translate(-219.031 -229.846)" fill="#f98568"/>
      <path id="Path_20" data-name="Path 20" d="M291.841,245.365h-2.1a3.137,3.137,0,0,1-3.136-3.137V245.5a4.19,4.19,0,1,0,8.379,0v-3.272a3.137,3.137,0,0,1-3.138,3.137Z" transform="translate(-239.888 -229.846)" fill="#ffa183" opacity="0.58"/>
      <path id="Path_21" data-name="Path 21" d="M320.841,243.261h-2.1a3.137,3.137,0,0,1-3.136-3.138v3.272a4.19,4.19,0,1,0,8.379,0v-3.272A3.137,3.137,0,0,1,320.841,243.261Z" transform="translate(-260.745 -228.333)" fill="#ffa183" opacity="0.58"/>
      <path id="Path_22" data-name="Path 22" d="M232.79,206.291a4.19,4.19,0,0,0-4.19,4.19v2.774a4.19,4.19,0,0,1,8.379,0v-2.774A4.19,4.19,0,0,0,232.79,206.291Z" transform="translate(-198.173 -204.009)" fill="#fff" opacity="0.43"/>
      <path id="Path_23" data-name="Path 23" d="M261.79,199.662a4.19,4.19,0,0,0-4.19,4.19v2.774a4.19,4.19,0,1,1,8.379,0v-2.774A4.19,4.19,0,0,0,261.79,199.662Z" transform="translate(-219.031 -199.244)" fill="#fff" opacity="0.43"/>
      <path id="Path_24" data-name="Path 24" d="M290.79,198.453a4.19,4.19,0,0,0-4.19,4.19v2.774a4.19,4.19,0,1,1,8.379,0v-2.774A4.19,4.19,0,0,0,290.79,198.453Z" transform="translate(-239.888 -198.374)" fill="#fff" opacity="0.43"/>
      <path id="Path_25" data-name="Path 25" d="M319.79,207.4a4.19,4.19,0,0,0-4.19,4.19v2.774a4.19,4.19,0,1,1,8.379,0V211.59A4.19,4.19,0,0,0,319.79,207.4Z" transform="translate(-260.745 -204.806)" fill="#fff" opacity="0.43"/>
      <rect id="Rectangle_18" data-name="Rectangle 18" width="8.379" height="17.876" rx="4.19" transform="translate(30.426 2.213)" fill="none" stroke="#020129" stroke-linecap="round" stroke-linejoin="round" stroke-width="1"/>
      <rect id="Rectangle_19" data-name="Rectangle 19" width="8.379" height="19.76" rx="4.19" transform="translate(38.569 0.341)" fill="none" stroke="#020129" stroke-linecap="round" stroke-linejoin="round" stroke-width="1"/>
      <rect id="Rectangle_20" data-name="Rectangle 20" width="8.379" height="20.109" rx="4.19" transform="translate(46.712 0)" fill="none" stroke="#020129" stroke-linecap="round" stroke-linejoin="round" stroke-width="1"/>
      <rect id="Rectangle_21" data-name="Rectangle 21" width="8.379" height="16.917" rx="4.19" transform="translate(54.854 2.529)" fill="none" stroke="#020129" stroke-linecap="round" stroke-linejoin="round" stroke-width="1"/>
      <path id="Path_26" data-name="Path 26" d="M296.013,263.832H288.79a4.189,4.189,0,0,1-4.19-4.19h0a4.189,4.189,0,0,1,4.19-4.19h8.957a4.19,4.19,0,0,1,4.19,4.19v4.19Z" transform="translate(-238.585 -239.362)" fill="#f9a991"/>
      <path id="Path_27" data-name="Path 27" d="M288.789,268.458a4.189,4.189,0,0,1-3.991-2.915,4.191,4.191,0,0,0-.163,1.822,4.266,4.266,0,0,0,4.266,3.641h8.279a2.549,2.549,0,0,0-2.549-2.549Z" transform="translate(-238.51 -246.589)" fill="#f98568"/>
      <path id="Path_28" data-name="Path 28" d="M297.746,255.453h-8.957a4.19,4.19,0,0,0-4.007,5.412,4.19,4.19,0,0,1,4.007-2.967h8.957a4.19,4.19,0,0,1,4.189,4.19v-2.446A4.19,4.19,0,0,0,297.746,255.453Z" transform="translate(-238.585 -239.346)" fill="#fff" opacity="0.43"/>
      <path id="Path_29" data-name="Path 29" d="M296.013,263.832H288.79a4.189,4.189,0,0,1-4.19-4.19h0a4.189,4.189,0,0,1,4.19-4.19h8.957a4.19,4.19,0,0,1,4.19,4.19v4.19" transform="translate(-238.585 -239.362)" fill="none" stroke="#020129" stroke-linecap="round" stroke-linejoin="round" stroke-width="1"/>
      <path id="Path_30" data-name="Path 30" d="M295.948,262.046h2.06a1.428,1.428,0,0,0,1.436-1.42h0" transform="translate(-246.541 -243.02)" fill="none" stroke="#0a002d" stroke-linecap="round" stroke-linejoin="round" stroke-width="1"/>
      <path id="Path_31" data-name="Path 31" d="M235.6,390.89a42.949,42.949,0,0,0,29.471,0V371.757H235.6Z" transform="translate(-203.483 -323.208)" fill="#2561a1"/>
      <path id="Path_32" data-name="Path 32" d="M235.6,390.89a42.949,42.949,0,0,0,29.471,0V371.757H235.6Z" transform="translate(-203.483 -323.208)" fill="#2561a1"/>
      <path id="Path_33" data-name="Path 33" d="M235.6,390.89a42.949,42.949,0,0,0,29.471,0V371.757H235.6Z" transform="translate(-203.483 -323.208)" fill="#2561a1"/>
      <path id="Path_34" data-name="Path 34" d="M235.6,371.757V390.89a42.68,42.68,0,0,0,14.736,2.607v-21.74Z" transform="translate(-203.28 -323.208)" fill="#1c5393"/>
      <rect id="Rectangle_22" data-name="Rectangle 22" width="29.471" height="2.478" transform="translate(32.116 48.869)" fill="#a4c7e2"/>
      <path id="Path_35" data-name="Path 35" d="M235.6,389.752a1.61,1.61,0,0,0,1.1,1.525,42.978,42.978,0,0,0,27.272,0,1.611,1.611,0,0,0,1.1-1.525V371.757H235.6Z" transform="translate(-203.483 -323.208)" fill="none" stroke="#020129" stroke-linecap="round" stroke-linejoin="round" stroke-width="1"/>
      <path id="Path_44" data-name="Path 44" d="M356.665,333.793h0a.953.953,0,0,1-.952-.953h0a.673.673,0,0,0-.581-.681.648.648,0,0,0-.714.644v.037a.953.953,0,0,1-.953.953h0a.674.674,0,0,0-.681.581.648.648,0,0,0,.644.715h.037a.953.953,0,0,1,.953.953h0a.673.673,0,0,0,.581.681.648.648,0,0,0,.714-.644v-.034a.956.956,0,0,1,.955-.955h.034a.648.648,0,0,0,.644-.715.673.673,0,0,0-.681-.582Z" transform="translate(-287.416 -294.456)" fill="#fff"/>
    </g>
  </g>
</svg>
