<svg xmlns="http://www.w3.org/2000/svg" xmlns:xlink="http://www.w3.org/1999/xlink" width="22.534" height="19.95" viewBox="0 0 22.534 19.95">
  <defs>
    <linearGradient id="linear-gradient" x1="0.568" y1="0.319" x2="0.285" y2="1.078" gradientUnits="objectBoundingBox">
      <stop offset="0" stop-color="#f9ca87"/>
      <stop offset="1" stop-color="#f06e7c"/>
    </linearGradient>
    <linearGradient id="linear-gradient-3" x1="0.675" y1="0.031" x2="0.325" y2="0.969" xlink:href="#linear-gradient"/>
  </defs>
  <g id="apply_leave" data-name="apply leave" transform="translate(0.001)">
    <path id="Fill_3" data-name="Fill 3" d="M0,6.624a6.624,6.624,0,0,0,6.624,6.624h0a6.624,6.624,0,0,0,6.624-6.624h0A6.624,6.624,0,0,0,6.624,0h0A6.624,6.624,0,0,0,0,6.624" transform="translate(9.285 1.993)" fill="url(#linear-gradient)"/>
    <path id="Fill_6" data-name="Fill 6" d="M0,4.163A4.163,4.163,0,0,0,4.163,8.327h0A4.163,4.163,0,0,0,8.326,4.163h0A4.163,4.163,0,0,0,4.163,0h0A4.163,4.163,0,0,0,0,4.163" transform="translate(-0.001 11.624)" fill="url(#linear-gradient)"/>
    <path id="Fill_9" data-name="Fill 9" d="M0,3.5a3.5,3.5,0,0,0,3.5,3.5h0a3.5,3.5,0,0,0,3.5-3.5h0A3.5,3.5,0,0,0,3.5,0h0A3.5,3.5,0,0,0,0,3.5" transform="translate(0.665)" fill="url(#linear-gradient-3)"/>
    <path id="Stroke_12" data-name="Stroke 12" d="M14.032,7.016A7.016,7.016,0,1,1,7.016,0,7.016,7.016,0,0,1,14.032,7.016Z" transform="translate(2.595 4.539)" fill="none" stroke="#2d2d41" stroke-linecap="round" stroke-width="1"/>
    <path id="Stroke_14" data-name="Stroke 14" d="M0,9.9,9.669,0" transform="translate(4.751 6.685)" fill="none" stroke="#2d2d41" stroke-linecap="round" stroke-width="1"/>
  </g>
</svg>
