<svg xmlns="http://www.w3.org/2000/svg" xmlns:xlink="http://www.w3.org/1999/xlink" width="28.091" height="35.942" viewBox="0 0 28.091 35.942">
  <defs>
    <linearGradient id="linear-gradient" x1="0.5" y1="1" x2="0.5" gradientUnits="objectBoundingBox">
      <stop offset="0" stop-color="#d4d8e1"/>
      <stop offset="1" stop-color="#f3f4f5"/>
    </linearGradient>
    <linearGradient id="linear-gradient-2" x1="0.5" y1="1.001" x2="0.5" gradientUnits="objectBoundingBox">
      <stop offset="0" stop-color="#f2c4b0"/>
      <stop offset="1" stop-color="#ffe3d7"/>
    </linearGradient>
    <linearGradient id="linear-gradient-3" x1="0.5" y1="1" x2="0.5" y2="0" xlink:href="#linear-gradient-2"/>
    <linearGradient id="linear-gradient-4" x1="0.501" x2="0.501" y2="0" xlink:href="#linear-gradient"/>
    <linearGradient id="linear-gradient-6" x1="0.5" y1="1" x2="0.5" gradientUnits="objectBoundingBox">
      <stop offset="0" stop-color="#da5466"/>
      <stop offset="1" stop-color="#f4929c"/>
    </linearGradient>
    <linearGradient id="linear-gradient-7" y1="1" y2="-0.001" xlink:href="#linear-gradient-6"/>
    <linearGradient id="linear-gradient-10" x1="0.499" y1="1" x2="0.499" gradientUnits="objectBoundingBox">
      <stop offset="0" stop-color="#9b756d"/>
      <stop offset="1" stop-color="#bc9388"/>
    </linearGradient>
  </defs>
  <g id="attendance" transform="translate(-6.987 0.046)">
    <path id="Path_12848" data-name="Path 12848" d="M34.932,52.458H8c.264-1.593.5-3.013.769-4.612A10.6,10.6,0,0,1,13.611,40.6c4.55-1.852,2.845-1.61,10.1-1.61a11.075,11.075,0,0,1,2.244.241L29.321,40.6a10.6,10.6,0,0,1,4.842,7.244C34.427,49.445,34.668,50.859,34.932,52.458Z" transform="translate(-0.445 -17.13)" fill="url(#linear-gradient)"/>
    <path id="Path_12849" data-name="Path 12849" d="M34.932,61.683H8L8.281,60H34.651Z" transform="translate(-0.445 -26.355)" fill="#c7cdd8"/>
    <path id="Path_12850" data-name="Path 12850" d="M33.465,10.19v7.748a6.733,6.733,0,0,1-13.438.595c-.039-.46-.028.112-.028-8.343Z" transform="translate(-5.71 -4.493)" fill="url(#linear-gradient-2)"/>
    <path id="Path_12851" data-name="Path 12851" d="M32.489,35.31v2.07l-2.244,2.244L28,37.38V35.31A6.7,6.7,0,0,0,32.489,35.31Z" transform="translate(-9.223 -15.518)" fill="url(#linear-gradient-3)"/>
    <path id="Path_12852" data-name="Path 12852" d="M32.489,35.31v1.122a6.7,6.7,0,0,1-4.489,0V35.31A6.7,6.7,0,0,0,32.489,35.31Z" transform="translate(-9.223 -15.518)" fill="#fcd2c3"/>
    <path id="Path_12853" data-name="Path 12853" d="M26.275,39l2.244,2.244L24.76,43.393l-.69-4.163Z" transform="translate(-7.498 -17.138)" fill="url(#linear-gradient-4)"/>
    <path id="Path_12854" data-name="Path 12854" d="M34.244,39,32,41.244l3.759,2.149.69-4.163Z" transform="translate(-10.979 -17.138)" fill="url(#linear-gradient-4)"/>
    <path id="Path_12855" data-name="Path 12855" d="M32.41,44.077,32,45.3a1.554,1.554,0,0,1-1.476,1.066c-1.313,0-1.515-1.184-1.885-2.289L30.525,43Z" transform="translate(-9.504 -18.894)" fill="url(#linear-gradient-6)"/>
    <path id="Path_12856" data-name="Path 12856" d="M32.458,56.869H28.25c.264-2.143.123-1,.842-6.733a1.274,1.274,0,0,1,2.525,0C32.318,55.746,32.189,54.692,32.458,56.869Z" transform="translate(-9.333 -21.541)" fill="url(#linear-gradient-7)"/>
    <path id="Path_12857" data-name="Path 12857" d="M44.561,22.366H44V19h.561a1.683,1.683,0,0,1,0,3.366Z" transform="translate(-16.246 -8.359)" fill="url(#linear-gradient-3)"/>
    <path id="Path_12858" data-name="Path 12858" d="M17.683,19h.561v3.366h-.561a1.683,1.683,0,0,1,0-3.366Z" transform="translate(-3.956 -8.359)" fill="url(#linear-gradient-3)"/>
    <path id="Path_12859" data-name="Path 12859" d="M33.466,10.19v5.734S32.344,12.889,31,12.081c-2.087,1.072-4.141.842-8.573.808A22.9,22.9,0,0,0,20,15.694v-5.5Z" transform="translate(-5.712 -4.493)" fill="#fcd2c3"/>
    <path id="Path_12860" data-name="Path 12860" d="M33.027,11.642a7.9,7.9,0,0,0-2.244-5.05c-2.244,1.481-3.81,1.122-9.538,1.122-1.38,3.226-1.65,3.8-1.683,3.928A18.589,18.589,0,0,1,19,7.108,6.1,6.1,0,0,1,25.1.981c2.766,0,4.27-.286,5.678,1.122a3.484,3.484,0,0,1,2.805,3.423,21.759,21.759,0,0,1-.561,6.116Z" transform="translate(-5.273 -0.44)" fill="url(#linear-gradient-10)"/>
    <path id="Path_12861" data-name="Path 12861" d="M33.449,15.294a7.9,7.9,0,0,0-2.244-5.05c-2.244,1.481-3.81,1.122-9.538,1.122-1.38,3.226-1.65,3.8-1.683,3.928a12.427,12.427,0,0,1,1.15-4.691.561.561,0,0,1,.533-.359c5.549,0,7.361.3,9.538-.9C32.467,8.628,33.729,14.172,33.449,15.294Z" transform="translate(-5.694 -4.092)" fill="#8a6762"/>
    <path id="Path_12862" data-name="Path 12862" d="M20,20Z" transform="translate(-5.712 -8.798)" fill="#fff"/>
    <path id="Path_12863" data-name="Path 12863" d="M21.366,39V52.466H18V40.683A1.683,1.683,0,0,1,19.683,39Z" transform="translate(-4.834 -17.138)" fill="#f6ad83"/>
    <path id="Path_12864" data-name="Path 12864" d="M43.366,40.683V52.466H40V39h1.683A1.683,1.683,0,0,1,43.366,40.683Z" transform="translate(-14.49 -17.138)" fill="#f6ad83"/>
    <rect id="Rectangle_6822" data-name="Rectangle 6822" width="3.366" height="1.683" transform="translate(13.166 33.645)" fill="#e85d4a"/>
    <path id="Path_12865" data-name="Path 12865" d="M32.25,60l.208,1.683H28.25L28.458,60Z" transform="translate(-9.333 -26.355)" fill="#cf4055"/>
    <rect id="Rectangle_6823" data-name="Rectangle 6823" width="3.366" height="1.683" transform="translate(25.51 33.645)" fill="#e85d4a"/>
    <path id="Path_12866" data-name="Path 12866" d="M34.274,30.626A11.222,11.222,0,0,0,29.4,23.153,2.244,2.244,0,0,0,27.193,21.3c-1.824,0-1.863-.05-2.082.168a10.969,10.969,0,0,0-1.285-.14v-1.15a7.294,7.294,0,0,0,4.393-5.611,2.253,2.253,0,0,0,.342-4.489,24.368,24.368,0,0,0,.314-4.994,4.068,4.068,0,0,0-3.092-3.928C24.2-.323,22.592-.02,19.832-.02a6.671,6.671,0,0,0-6.666,6.666,19.318,19.318,0,0,0,.314,3.434,2.252,2.252,0,0,0,.342,4.489,7.26,7.26,0,0,0,4.393,5.611V21.3a10.969,10.969,0,0,0-1.285.14c-.219-.224-.286-.168-2.082-.168a2.244,2.244,0,0,0-2.205,1.852,11.222,11.222,0,0,0-4.876,7.5l-.774,4.612a.568.568,0,0,0,1.122.18c.757-4.562.808-7.984,4.489-10.868V35.328a.561.561,0,0,0,1.122,0V23.545a1.122,1.122,0,0,1,1.122-1.122h1.122v12.9a.561.561,0,0,0,1.122,0V26.777c.309.1.258.073,1.728-.769a2.772,2.772,0,0,0,.836,1.521c-.527.561-.382.387-1.3,7.732a.565.565,0,0,0,1.122.135l.842-6.733a.713.713,0,0,1,1.414,0l.842,6.733a.565.565,0,0,0,1.122-.135c-.915-7.333-.774-7.154-1.3-7.732a2.766,2.766,0,0,0,.836-1.521c1.42.814,1.363.808,1.56.808s.168-1.122.168,8.512a.561.561,0,0,0,1.122,0v-12.9h1.122a1.122,1.122,0,0,1,1.122,1.122V35.328a.561.561,0,0,0,1.122,0V24.55c3.686,2.884,3.737,6.307,4.489,10.868a.568.568,0,1,0,1.122-.18Zm-4.837-18.3a1.122,1.122,0,0,1-1.122,1.122V11.2A1.122,1.122,0,0,1,29.438,12.324ZM19.832,1.1c2.671,0,4.051-.269,5.28.959a.561.561,0,0,0,.286.163,2.934,2.934,0,0,1,2.357,2.862A30.859,30.859,0,0,1,27.67,8.4a7.979,7.979,0,0,0-1.762-2.66.561.561,0,0,0-.707-.067c-2,1.352-3.4,1.044-9.23,1.044-.527,0-.533.376-1.487,2.6a18.515,18.515,0,0,1-.2-2.671A5.549,5.549,0,0,1,19.832,1.1ZM12.605,12.324A1.122,1.122,0,0,1,13.727,11.2v2.244A1.122,1.122,0,0,1,12.605,12.324Zm2.244,1.122V11.314l1.492-3.479c5.454,0,6.918.275,9.073-.965a7.658,7.658,0,0,1,1.779,4.376v2.2a6.172,6.172,0,1,1-12.344,0Zm7.855,7.1v1.088l-1.683,1.683-1.683-1.683V20.544a7.485,7.485,0,0,0,3.366,0Zm-5.487,2.014a10.661,10.661,0,0,1,1.341-.135l1.549,1.549-2.424,1.386Zm4.747,3.675a.993.993,0,0,1-1.885,0l-.264-.791,1.206-.69,1.206.69Zm2.424-.864-2.424-1.386,1.521-1.56a10.661,10.661,0,0,1,1.341.123Z" transform="translate(0 0)"/>
    <path id="Path_12867" data-name="Path 12867" d="M32.217,29.28a.561.561,0,0,0-.8,0,1.122,1.122,0,0,1-1.582,0,.563.563,0,0,0-.8.8C30.55,31.581,33.053,30.122,32.217,29.28Z" transform="translate(-9.607 -12.799)"/>
    <path id="Path_12868" data-name="Path 12868" d="M25,19.561v.561a.561.561,0,0,0,1.122,0v-.561a.561.561,0,1,0-1.122,0Z" transform="translate(-7.906 -8.359)"/>
    <path id="Path_12869" data-name="Path 12869" d="M38.122,20.122v-.561a.561.561,0,1,0-1.122,0v.561a.561.561,0,0,0,1.122,0Z" transform="translate(-13.173 -8.359)"/>
  </g>
</svg>
