<svg xmlns="http://www.w3.org/2000/svg" width="25.714" height="27" viewBox="0 0 25.714 27">
  <path id="events" d="M6,28.143A3.861,3.861,0,0,0,9.857,32h18a3.861,3.861,0,0,0,3.857-3.857V15.286H6Zm9.431-6.279a1.286,1.286,0,1,1,1.286-2.227l.855.494v-.987a1.286,1.286,0,0,1,2.571,0v.987L21,19.636a1.286,1.286,0,1,1,1.286,2.227l-.855.493.855.493A1.286,1.286,0,0,1,21,25.078l-.855-.494v.987a1.286,1.286,0,0,1-2.571,0v-.987l-.855.494a1.286,1.286,0,0,1-1.286-2.227l.855-.493ZM31.714,10.143v2.571H6V10.143A3.861,3.861,0,0,1,9.857,6.286h1.286a1.286,1.286,0,0,1,2.571,0h3.858a1.286,1.286,0,1,1,2.571,0H24a1.286,1.286,0,1,1,2.571,0h1.286a3.861,3.861,0,0,1,3.856,3.857Z" transform="translate(-6 -5)" fill="#fff"/>
</svg>
