<svg xmlns="http://www.w3.org/2000/svg" width="36.377" height="25.162" viewBox="0 0 36.377 25.162">
  <g id="leave" transform="translate(-3.754 0.452)">
    <g id="Group_17383" data-name="Group 17383" transform="translate(4.254 16.286)">
      <path id="Path_12816" data-name="Path 12816" d="M11.754,18.2H4.739c-.285-6.753,5.641-6.882,8.639-6.1C12.364,13.147,11.873,16.605,11.754,18.2Z" transform="translate(-4.729 -11.775)" fill="#fff" stroke="#fff" stroke-width="1"/>
      <path id="Path_12817" data-name="Path 12817" d="M11.754,18.2H4.739c-.285-6.753,5.641-6.882,8.639-6.1C12.364,13.147,11.873,16.605,11.754,18.2Z" transform="translate(-4.729 -11.775)" fill="none" stroke="#fff" stroke-width="0.257"/>
    </g>
    <circle id="Ellipse_1412" data-name="Ellipse 1412" cx="5.992" cy="5.992" r="5.992" transform="translate(14.884 0.048)" fill="#fff" stroke="#fff" stroke-width="1"/>
    <circle id="Ellipse_1413" data-name="Ellipse 1413" cx="3.497" cy="3.497" r="3.497" transform="translate(6.638 6.04)" fill="#fff" stroke="#fff" stroke-width="1"/>
    <circle id="Ellipse_1414" data-name="Ellipse 1414" cx="3.5" cy="3.5" r="3.5" transform="translate(28.122 6.04)" fill="#fff" stroke="#fff" stroke-width="1"/>
    <g id="Group_17384" data-name="Group 17384" transform="translate(12.903 13.425)">
      <path id="Path_12818" data-name="Path 12818" d="M26.594,20.868H10.861a15.616,15.616,0,0,1,1.03-5.324c1.537-4.314,4.651-5.56,5.589-5.455H20.57C26.245,11.642,26.951,17.922,26.594,20.868Z" transform="translate(-10.861 -10.083)" fill="#fff" stroke="#fff" stroke-width="1"/>
      <path id="Path_12819" data-name="Path 12819" d="M26.594,20.868H10.861a15.616,15.616,0,0,1,1.03-5.324c1.537-4.314,4.651-5.56,5.589-5.455H20.57C26.245,11.642,26.951,17.922,26.594,20.868Z" transform="translate(-10.861 -10.083)" fill="none" stroke="#fff" stroke-width="0.257"/>
    </g>
    <g id="Group_17385" data-name="Group 17385" transform="translate(28.713 4.486)">
      <path id="Path_12820" data-name="Path 12820" d="M24.626,14.412a4.505,4.505,0,0,0-2.122.561,11.155,11.155,0,0,1,1.371,3.153,18.729,18.729,0,0,1,.456,3.7h6.923s-.28-2.2-.52-3.984a6.149,6.149,0,0,1,.681-3.433A14.794,14.794,0,0,0,33.323,8.5l.089-4.185c-.638-1.293-1.166-.539-1.351,0A29.32,29.32,0,0,1,31.64,8.5a10.353,10.353,0,0,1-3.011,5A5.332,5.332,0,0,1,24.626,14.412Z" transform="translate(-22.497 -3.601)" fill="#fff" stroke="#fff" stroke-width="1"/>
      <path id="Path_12821" data-name="Path 12821" d="M24.754,14.412a4.124,4.124,0,0,0-2.25.561c.766.543,1.483,4.715,1.652,6.855h7.058a34.854,34.854,0,0,0-.48-3.984,6.149,6.149,0,0,1,.681-3.433A14.794,14.794,0,0,0,33.323,8.5l.089-4.185c-.638-1.293-1.166-.539-1.351,0A29.32,29.32,0,0,1,31.64,8.5a10.353,10.353,0,0,1-3.011,5A5.017,5.017,0,0,1,24.754,14.412Z" transform="translate(-22.497 -3.601)" fill="none" stroke="#fff" stroke-width="0.257"/>
    </g>
  </g>
</svg>
