<svg xmlns="http://www.w3.org/2000/svg" xmlns:xlink="http://www.w3.org/1999/xlink" width="22.457" height="16.464" viewBox="0 0 22.457 16.464">
  <defs>
    <linearGradient id="linear-gradient" x1="0.432" y1="0.319" x2="0.715" y2="1.078" gradientUnits="objectBoundingBox">
      <stop offset="0" stop-color="#f9ca87"/>
      <stop offset="1" stop-color="#f06e7c"/>
    </linearGradient>
    <linearGradient id="linear-gradient-2" x1="0.325" y1="0.031" x2="0.675" y2="0.969" xlink:href="#linear-gradient"/>
  </defs>
  <g id="change_password" data-name="change password" transform="translate(0 0.5)">
    <path id="Fill_3" data-name="Fill 3" d="M11.792,5.9a5.9,5.9,0,0,1-5.9,5.9h0A5.9,5.9,0,0,1,0,5.9H0A5.9,5.9,0,0,1,5.9,0h0a5.9,5.9,0,0,1,5.9,5.9" transform="translate(0 1.774)" fill="url(#linear-gradient)"/>
    <path id="Fill_9" data-name="Fill 9" d="M6.225,3.112A3.112,3.112,0,0,1,3.112,6.225h0A3.112,3.112,0,0,1,0,3.112H0A3.112,3.112,0,0,1,3.112,0h0A3.112,3.112,0,0,1,6.225,3.112" transform="translate(13.24 0)" fill="url(#linear-gradient-2)"/>
    <g id="Icon_feather-lock" data-name="Icon feather-lock" transform="translate(8.039 0)">
      <path id="Path_12792" data-name="Path 12792" d="M6.046,16.5H16.871a1.546,1.546,0,0,1,1.546,1.546v5.413a1.546,1.546,0,0,1-1.546,1.546H6.046A1.546,1.546,0,0,1,4.5,23.459V18.046A1.546,1.546,0,0,1,6.046,16.5Z" transform="translate(-4.5 -9.541)" fill="none" stroke="#000" stroke-linecap="round" stroke-linejoin="round" stroke-width="1"/>
      <path id="Path_12793" data-name="Path 12793" d="M10.5,9.959V6.866a3.866,3.866,0,0,1,7.732,0V9.959" transform="translate(-7.407 -3)" fill="none" stroke="#000" stroke-linecap="round" stroke-linejoin="round" stroke-width="1"/>
    </g>
  </g>
</svg>
