<svg xmlns="http://www.w3.org/2000/svg" xmlns:xlink="http://www.w3.org/1999/xlink" width="22.778" height="20.975" viewBox="0 0 22.778 20.975">
  <defs>
    <linearGradient id="linear-gradient" y1="0.5" x2="1" y2="0.5" gradientUnits="objectBoundingBox">
      <stop offset="0" stop-color="#f9ca87"/>
      <stop offset="1" stop-color="#f06e7c"/>
    </linearGradient>
  </defs>
  <g id="complaint_suggestion" data-name="complaint suggestion" transform="translate(0)">
    <path id="Icon_awesome-pen" data-name="Icon awesome-pen" d="M4.312,1.374l1.9,1.886-4.124,4.1L.394,7.542A.355.355,0,0,1,0,7.151L.19,5.468.67,4.991,4.312,1.374Zm3.074-.281L6.494.208a.716.716,0,0,0-1.007,0l-.839.833,1.9,1.886.839-.833a.7.7,0,0,0,0-1Z" transform="translate(6.117 5.119)"/>
    <line id="Line_1989" data-name="Line 1989" x2="5.386" transform="translate(9.978 12.741)" fill="none" stroke="#000" stroke-linecap="round" stroke-width="1"/>
    <g id="Group_17329" data-name="Group 17329" transform="translate(0)">
      <path id="Fill_51" data-name="Fill 51" d="M14.19.133,1.71,4.326A2.491,2.491,0,0,0,0,6.706H0v.012A2.47,2.47,0,0,0,1.075,8.761h0l11.36,7.912a2.508,2.508,0,0,0,3.931-1.827h0l1.119-12.1A2.511,2.511,0,0,0,14.994,0h0a2.519,2.519,0,0,0-.8.133" transform="translate(0 0)" fill="url(#linear-gradient)"/>
      <path id="Stroke_54" data-name="Stroke 54" d="M0,7.434a7.327,7.327,0,0,0,.787,3.323,7.433,7.433,0,0,0,6.646,4.11,7.327,7.327,0,0,0,3.323-.787l4.985,1.662L14.08,10.757a7.327,7.327,0,0,0,.787-3.323A7.433,7.433,0,0,0,10.757.787,7.327,7.327,0,0,0,7.434,0H7A7.416,7.416,0,0,0,0,7Z" transform="translate(6.246 4.443)" fill="none" stroke="#2d2d41" stroke-width="1"/>
      <path id="Fill_56" data-name="Fill 56" d="M0,2.152a2.234,2.234,0,0,1,.113-.823A1.688,1.688,0,0,1,.474.717,2.094,2.094,0,0,1,1.015.308,2.437,2.437,0,0,1,1.666.071,3.455,3.455,0,0,1,2.376,0,3.067,3.067,0,0,1,3.523.206a1.9,1.9,0,0,1,.841.651,1.755,1.755,0,0,1,.327,1.068,1.957,1.957,0,0,1-.085.593,1.409,1.409,0,0,1-.256.475,2.715,2.715,0,0,1-.319.335q-.148.127-.385.3-.28.2-.4.3A1.836,1.836,0,0,0,3,4.158a.717.717,0,0,0-.164.29,1.5,1.5,0,0,0-.037.361v.274H1.537l-.005-.306A1.628,1.628,0,0,1,1.74,3.81a2.482,2.482,0,0,1,.731-.746q.232-.158.346-.248a2.462,2.462,0,0,0,.24-.222.774.774,0,0,0,.177-.272A.944.944,0,0,0,3.283,2,.764.764,0,0,0,3,1.358a1.118,1.118,0,0,0-.7-.219.972.972,0,0,0-.746.285,1.022,1.022,0,0,0-.266.728Z" transform="translate(11.435 8.242)" fill="#2d2d41"/>
    </g>
    <path id="Fill_58" data-name="Fill 58" d="M0,1.278H1.278V0H0Z" transform="translate(12.964 14.245)" fill="#2d2d41"/>
  </g>
</svg>
