<svg xmlns="http://www.w3.org/2000/svg" width="37.738" height="28.461" viewBox="0 0 37.738 28.461">
  <g id="complaint_suggestion" data-name="complaint &amp; suggestion" transform="translate(-2 -13.8)">
    <path id="Path_12822" data-name="Path 12822" d="M53.328,35.656A10.928,10.928,0,1,0,42.4,24.728,10.955,10.955,0,0,0,53.328,35.656Zm2.988-14.23h1.258a.786.786,0,0,1,0,1.572H56.316a.786.786,0,1,1,0-1.572ZM53.485,28.9a4.634,4.634,0,0,0,3.3-1.337.778.778,0,1,1,1.1,1.1,6.264,6.264,0,0,1-8.805,0,.778.778,0,1,1,1.1-1.1A4.991,4.991,0,0,0,53.485,28.9Zm-4.324-7.469h1.258a.786.786,0,0,1,0,1.572H49.161a.786.786,0,0,1,0-1.572Z" transform="translate(-24.519 0)" fill="#fff"/>
    <path id="Path_12823" data-name="Path 12823" d="M12.928,52.576a10.707,10.707,0,0,0,9.985-6.525,12.834,12.834,0,0,1-5.582-6.132c-.079,0-.157.079-.236.079H15.837a.786.786,0,0,1,0-1.572h.943a11.562,11.562,0,0,1-.472-3.3,10.43,10.43,0,0,1,.55-3.538,11.375,11.375,0,0,0-4.01-.786A10.821,10.821,0,0,0,2,41.648,10.955,10.955,0,0,0,12.928,52.576Zm4.324-7.233a.778.778,0,0,1-1.1,1.1,4.747,4.747,0,0,0-6.6,0,.778.778,0,0,1-1.1-1.1,6.184,6.184,0,0,1,4.4-1.808A5.875,5.875,0,0,1,17.252,45.343Zm-8.57-7H9.941a.786.786,0,0,1,0,1.572H8.683a.743.743,0,0,1-.786-.786A.788.788,0,0,1,8.683,38.346Z" transform="translate(0 -10.316)" fill="#fff"/>
  </g>
</svg>
