<svg xmlns="http://www.w3.org/2000/svg" xmlns:xlink="http://www.w3.org/1999/xlink" width="19.241" height="20" viewBox="0 0 19.241 20">
  <defs>
    <linearGradient id="linear-gradient" x1="1.163" y1="0.364" x2="-0.188" y2="0.659" gradientUnits="objectBoundingBox">
      <stop offset="0" stop-color="#f9ca87"/>
      <stop offset="1" stop-color="#f06e7c"/>
    </linearGradient>
    <linearGradient id="linear-gradient-2" x1="0.599" y1="1.007" x2="0.426" y2="-0.072" xlink:href="#linear-gradient"/>
  </defs>
  <g id="homework" transform="translate(0)">
    <path id="Fill_17" data-name="Fill 17" d="M1.335,1.621C-1.044,5.94-.46,12.327,4.86,12.946h0a5.164,5.164,0,0,1,4.113,3.307h0a2.109,2.109,0,0,0,3.881-.137h0C17.339,4.45,10.189,0,5.22,0h0C3.42,0,1.906.584,1.335,1.621" transform="translate(1.451)" fill="url(#linear-gradient)"/>
    <path id="Fill_20" data-name="Fill 20" d="M3.623.33A2.229,2.229,0,0,1,1.349.241h0A.914.914,0,0,0,.033,1.282h0c1.915,7.059,7.942,3.957,7.7,2.059h0C7.514,1.657,6.3,0,4.788,0h0A2.333,2.333,0,0,0,3.623.33" transform="translate(0 14.318)" fill="url(#linear-gradient-2)"/>
    <path id="Stroke_60" data-name="Stroke 60" d="M13.4,8.792a1.248,1.248,0,0,1-1.248,1.247H1.248A1.248,1.248,0,0,1,0,8.792V1.249A1.248,1.248,0,0,1,1.248,0h10.9A1.249,1.249,0,0,1,13.4,1.249Z" transform="translate(2.5 7.12)" fill="none" stroke="#2d2d41" stroke-width="1"/>
    <path id="Stroke_61" data-name="Stroke 61" d="M0,2.944V1.249A1.248,1.248,0,0,1,1.248,0h10.9A1.249,1.249,0,0,1,13.4,1.249V8.792a1.249,1.249,0,0,1-1.248,1.248h-1.7" transform="translate(5.341 4.176)" fill="none" stroke="#2d2d41" stroke-width="1"/>
    <path id="Stroke_62" data-name="Stroke 62" d="M0,.048,2.507,2.134,5.073,0" transform="translate(6.467 10.244)" fill="none" stroke="#2d2d41" stroke-width="1"/>
  </g>
</svg>
