<svg xmlns="http://www.w3.org/2000/svg" xmlns:xlink="http://www.w3.org/1999/xlink" width="19.227" height="21.537" viewBox="0 0 19.227 21.537">
  <defs>
    <linearGradient id="linear-gradient" x1="0.508" y1="0.261" x2="0.149" y2="1.034" gradientUnits="objectBoundingBox">
      <stop offset="0" stop-color="#f9ca87"/>
      <stop offset="1" stop-color="#f06e7c"/>
    </linearGradient>
  </defs>
  <g id="home" transform="translate(0)">
    <g id="Group_17322" data-name="Group 17322" transform="translate(0)">
      <path id="Fill_33" data-name="Fill 33" d="M10.922,0A10.955,10.955,0,0,0,.88,6.668h0A10.97,10.97,0,0,0,6.66,21.055h0c5.564,2.375,1.923-4.516,4.3-10.087h0c2.372-5.571,9.86-7.712,4.3-10.087h0A10.906,10.906,0,0,0,11,0h-.078Z" transform="translate(0)" fill="url(#linear-gradient)"/>
      <path id="Stroke_36" data-name="Stroke 36" d="M10.919,0V6.174H0V0" transform="translate(6.303 12.256)" fill="none" stroke="#2d2d41" stroke-width="1"/>
      <path id="Stroke_38" data-name="Stroke 38" d="M0,5.522,7.159,0l7.159,5.522" transform="translate(4.603 4.35)" fill="none" stroke="#2d2d41" stroke-width="1"/>
    </g>
  </g>
</svg>
