<svg xmlns="http://www.w3.org/2000/svg" width="17.406" height="13.485" viewBox="0 0 17.406 13.485">
  <path id="Icon_simple-minutemailer" data-name="Icon simple-minutemailer" d="M4.035,4.055l2.5,2.708-1.765,3.48L8.5,9.574l1.7,4.095,7.209-9.453ZM3.574,9.92l.694-.571-.895.283L3.282,9.5l.37-.359-.485.2a4.94,4.94,0,0,0-1.62,8.2,4.905,4.905,0,0,1-.642-2.433,5.063,5.063,0,0,1,3.129-4.656L4.263,9.9l-.544.24-.153-.207.008-.008ZM6.739,8.492,7.9,6.446l6.816-1.6L6.739,8.492Z" transform="translate(0 -4.055)" fill="#fff"/>
</svg>
