<svg xmlns="http://www.w3.org/2000/svg" width="25.296" height="17.076" viewBox="0 0 25.296 17.076">
  <path id="mail" d="M.072,19.631V5.58q0-.024.073-.463l8.27,7.074L.17,20.119a2.067,2.067,0,0,1-.1-.488Zm1.1-15.49a1.051,1.051,0,0,1,.415-.073H23.856a1.381,1.381,0,0,1,.439.073L16,11.24l-1.1.878L12.732,13.9l-2.171-1.781-1.1-.878Zm.024,16.929,8.318-7.977,3.22,2.61,3.22-2.61,8.318,7.977a1.171,1.171,0,0,1-.415.073H1.584a1.1,1.1,0,0,1-.39-.073ZM17.05,12.191,25.3,5.117a1.456,1.456,0,0,1,.073.463V19.631a1.87,1.87,0,0,1-.073.488Z" transform="translate(-0.072 -4.068)" fill="#fff"/>
</svg>
