<svg xmlns="http://www.w3.org/2000/svg" width="20.24" height="20.426" viewBox="0 0 20.24 20.426">
  <g id="messages" transform="translate(0)">
    <g id="Dribbble-Light-Preview" transform="translate(0)">
      <g id="icons" transform="translate(0)">
        <path id="message-_1579_" data-name="message-[#1579]" d="M14.077,759A9.968,9.968,0,1,0,15.8,778.785a8.945,8.945,0,0,1,3.723.187l1.474.372a2.583,2.583,0,0,0,3.159-3.125l-.281-1.092a7.14,7.14,0,0,1-.056-3.617A9.95,9.95,0,0,0,14.077,759m0,2.043a7.972,7.972,0,0,1,7.869,6.213,7.882,7.882,0,0,1-.081,3.721c-1.366,5.1,2.629,7.145-1.852,6.013a10.957,10.957,0,0,0-4.559-.218,8.115,8.115,0,0,1-3.526-.169,7.909,7.909,0,0,1,2.148-15.561" transform="translate(-4 -759)" fill="#2a2e43" fill-rule="evenodd"/>
      </g>
    </g>
  </g>
</svg>
