<svg xmlns="http://www.w3.org/2000/svg" width="22.666" height="31.612" viewBox="0 0 22.666 31.612">
  <g id="notice_board" data-name="notice board" transform="translate(-205.853 527.764)">
    <g id="g12" transform="translate(205.853 -527.764)">
      <path id="path58" d="M212.8-282.5a3.344,3.344,0,0,1-.258-2.313.672.672,0,0,1,.3-.474.218.218,0,0,1,.155-.018.279.279,0,0,1,.153.2,2.252,2.252,0,0,1-.077,1.344c-.131.437-.172.781-.278,1.267" transform="translate(-211.901 305.173)" fill="#caeefc"/>
      <path id="path60" d="M228.476-264.661a3.57,3.57,0,0,1-.4-2.233.755.755,0,0,1,.227-.512.18.18,0,0,1,.133-.042c.073.013.118.092.148.169a2.516,2.516,0,0,1,.037,1.331c-.08.449-.088.793-.143,1.286" transform="translate(-226.222 288.768)" fill="#caeefc"/>
      <path id="path168" d="M321.607-526.048a.611.611,0,0,1-.611-.612.612.612,0,0,1,.611-.612.612.612,0,0,1,.612.612.612.612,0,0,1-.612.612m0-1.716a1.09,1.09,0,0,0-1.09,1.09v1.4h2.18v-1.4a1.09,1.09,0,0,0-1.09-1.09" transform="translate(-310.043 527.764)" fill="#e93654"/>
      <path id="path170" d="M321.982-520.656a.669.669,0,0,0,.236-.483h0a.611.611,0,0,1-.236.483h0m-1.466-.5v0m0,0v0m0,0v0m0,0v0m0,0v0m0,0a.013.013,0,0,0,0,0,.013.013,0,0,1,0,0m0,0v0m0,0v0m0,0h0m0,0h0m0-.005h0m0,0h0m0,0h0m1.211-.542a.621.621,0,0,0-.121-.012.616.616,0,0,0-.092.009l.009,0a.612.612,0,0,1,.082-.005.621.621,0,0,1,.121.012" transform="translate(-310.071 522.243)" fill="#d099a8"/>
      <path id="path172" d="M320.85-525.013h-.333V-526.2h0v0h0v0h0v0h0v0h0a.015.015,0,0,0,0,0h0v-.007h0v0h0s0,0,0,0h0a.013.013,0,0,1,0,0h0v0h0a1.09,1.09,0,0,1,.79-1,1.064,1.064,0,0,0-.458.908v1.324m1.133-.688a.611.611,0,0,0,.236-.483h0a.612.612,0,0,0-.49-.6.611.611,0,0,0-.121-.012.621.621,0,0,0-.082.005.425.425,0,0,1,.239-.056.612.612,0,0,1,.612.612.5.5,0,0,1-.392.533" transform="translate(-310.062 527.288)" fill="#d0334b"/>
      <path id="path174" d="M227.345-467.446H207.026a1.123,1.123,0,0,1-1.173-1.064v-26.924a1.122,1.122,0,0,1,1.173-1.064h20.319a1.122,1.122,0,0,1,1.173,1.064v26.924a1.123,1.123,0,0,1-1.173,1.064" transform="translate(-205.853 499.058)" fill="#e85d4a"/>
      <path id="path176" d="M220.394-455.811h20.284v-26.773H220.394Z" transform="translate(-219.203 486.284)" fill="#caeefc"/>
      <path id="path178" d="M228.923-447.46H247.81V-472.6H228.923Z" transform="translate(-227.034 477.115)" fill="#fff"/>
      <path id="path180" d="M265.936-499.219v1.092H250.6v-1.092a.656.656,0,0,1,.041-.228.885.885,0,0,1,.849-.538h13.557a.834.834,0,0,1,.889.767" transform="translate(-246.935 502.26)" fill="#e93654"/>
      <path id="path182" d="M265.936-498.127H250.6v-.791a2.94,2.94,0,0,1,.041-.53.885.885,0,0,1,.849-.538h.109a1.076,1.076,0,0,0-.405.795v.791h14.743v.273" transform="translate(-246.935 502.26)" fill="#d0334b"/>
      <path id="path184" d="M286.52-441.706H283.8a.17.17,0,0,1-.17-.17.17.17,0,0,1,.17-.17h2.724a.17.17,0,0,1,.17.17.17.17,0,0,1-.17.17" transform="translate(-276.485 449.067)" fill="#deecf6"/>
      <path id="path186" d="M393.766-431.1h-2.071a.17.17,0,0,1-.17-.17.17.17,0,0,1,.17-.17h2.071a.17.17,0,0,1,.17.17.17.17,0,0,1-.17.17" transform="translate(-374.2 439.331)" fill="#deecf6"/>
      <path id="path188" d="M291.735-431.1H283.8a.17.17,0,0,1-.17-.17.17.17,0,0,1,.17-.17h7.939a.17.17,0,0,1,.17.17.17.17,0,0,1-.17.17" transform="translate(-276.157 439.331)" fill="#deecf6"/>
      <path id="path190" d="M294.7-420.5H283.8a.17.17,0,0,1-.17-.17.17.17,0,0,1,.17-.17H294.7a.17.17,0,0,1,.17.17.17.17,0,0,1-.17.17" transform="translate(-275.138 429.596)" fill="#deecf6"/>
      <path id="path192" d="M378.118-409.9h-3.467a.17.17,0,0,1-.17-.17.17.17,0,0,1,.17-.17h3.467a.17.17,0,0,1,.17.17.17.17,0,0,1-.17.17" transform="translate(-358.552 419.861)" fill="#deecf6"/>
      <path id="path194" d="M290.374-409.9H283.8a.17.17,0,0,1-.17-.17.17.17,0,0,1,.17-.17h6.577a.17.17,0,0,1,.17.17.17.17,0,0,1-.17.17" transform="translate(-276.267 419.861)" fill="#deecf6"/>
      <path id="path196" d="M335.261-441.706h-7.29a.17.17,0,0,1-.17-.17.17.17,0,0,1,.17-.17h7.29a.17.17,0,0,1,.17.17.17.17,0,0,1-.17.17" transform="translate(-315.695 449.067)" fill="#deecf6"/>
      <path id="path198" d="M286.52-365.48H283.8a.17.17,0,0,1-.17-.17.17.17,0,0,1,.17-.17h2.724a.17.17,0,0,1,.17.17.17.17,0,0,1-.17.17" transform="translate(-276.485 379.083)" fill="#deecf6"/>
      <path id="path200" d="M393.766-354.877h-2.071a.17.17,0,0,1-.17-.17.17.17,0,0,1,.17-.17h2.071a.17.17,0,0,1,.17.17.17.17,0,0,1-.17.17" transform="translate(-374.2 369.348)" fill="#deecf6"/>
      <path id="path202" d="M291.735-354.877H283.8a.17.17,0,0,1-.17-.17.17.17,0,0,1,.17-.17h7.939a.17.17,0,0,1,.17.17.17.17,0,0,1-.17.17" transform="translate(-276.157 369.348)" fill="#deecf6"/>
      <path id="path204" d="M294.7-344.273H283.8a.17.17,0,0,1-.17-.17.17.17,0,0,1,.17-.17H294.7a.17.17,0,0,1,.17.17.17.17,0,0,1-.17.17" transform="translate(-275.138 359.613)" fill="#deecf6"/>
      <path id="path206" d="M378.118-333.669h-3.467a.17.17,0,0,1-.17-.17.17.17,0,0,1,.17-.17h3.467a.17.17,0,0,1,.17.17.17.17,0,0,1-.17.17" transform="translate(-358.552 349.877)" fill="#deecf6"/>
      <path id="path208" d="M290.374-333.669H283.8a.17.17,0,0,1-.17-.17.17.17,0,0,1,.17-.17h6.577a.17.17,0,0,1,.17.17.17.17,0,0,1-.17.17" transform="translate(-276.267 349.877)" fill="#deecf6"/>
      <path id="path210" d="M335.261-365.48h-7.29a.17.17,0,0,1-.17-.17.17.17,0,0,1,.17-.17h7.29a.17.17,0,0,1,.17.17.17.17,0,0,1-.17.17" transform="translate(-315.695 379.083)" fill="#deecf6"/>
      <path id="path212" d="M286.52-291.921H283.8a.17.17,0,0,1-.17-.17.17.17,0,0,1,.17-.17h2.724a.17.17,0,0,1,.17.17.17.17,0,0,1-.17.17" transform="translate(-276.485 311.548)" fill="#deecf6"/>
      <path id="path214" d="M393.766-281.317h-2.071a.17.17,0,0,1-.17-.17.17.17,0,0,1,.17-.17h2.071a.17.17,0,0,1,.17.17.17.17,0,0,1-.17.17" transform="translate(-374.2 301.813)" fill="#deecf6"/>
      <path id="path216" d="M291.735-281.317H283.8a.17.17,0,0,1-.17-.17.17.17,0,0,1,.17-.17h7.939a.17.17,0,0,1,.17.17.17.17,0,0,1-.17.17" transform="translate(-276.157 301.813)" fill="#deecf6"/>
      <path id="path218" d="M294.7-270.713H283.8a.17.17,0,0,1-.17-.17.17.17,0,0,1,.17-.17H294.7a.17.17,0,0,1,.17.17.17.17,0,0,1-.17.17" transform="translate(-275.138 292.077)" fill="#deecf6"/>
      <path id="path220" d="M378.118-260.11h-3.467a.17.17,0,0,1-.17-.17.17.17,0,0,1,.17-.17h3.467a.17.17,0,0,1,.17.17.17.17,0,0,1-.17.17" transform="translate(-358.552 282.343)" fill="#deecf6"/>
      <path id="path222" d="M290.374-260.11H283.8a.17.17,0,0,1-.17-.17.17.17,0,0,1,.17-.17h6.577a.17.17,0,0,1,.17.17.17.17,0,0,1-.17.17" transform="translate(-276.267 282.343)" fill="#deecf6"/>
      <path id="path224" d="M335.261-291.921h-7.29a.17.17,0,0,1-.17-.17.17.17,0,0,1,.17-.17h7.29a.17.17,0,0,1,.17.17.17.17,0,0,1-.17.17" transform="translate(-315.695 311.548)" fill="#deecf6"/>
      <path id="path226" d="M286.52-217.028H283.8a.17.17,0,0,1-.17-.17.17.17,0,0,1,.17-.17h2.724a.17.17,0,0,1,.17.17.17.17,0,0,1-.17.17" transform="translate(-276.485 242.788)" fill="#deecf6"/>
      <path id="path228" d="M393.766-206.424h-2.071a.17.17,0,0,1-.17-.17.17.17,0,0,1,.17-.17h2.071a.17.17,0,0,1,.17.17.17.17,0,0,1-.17.17" transform="translate(-374.2 233.053)" fill="#deecf6"/>
      <path id="path230" d="M291.735-206.424H283.8a.17.17,0,0,1-.17-.17.17.17,0,0,1,.17-.17h7.939a.17.17,0,0,1,.17.17.17.17,0,0,1-.17.17" transform="translate(-276.157 233.053)" fill="#deecf6"/>
      <path id="path232" d="M294.7-195.821H283.8a.17.17,0,0,1-.17-.17.17.17,0,0,1,.17-.17H294.7a.17.17,0,0,1,.17.17.17.17,0,0,1-.17.17" transform="translate(-275.138 223.319)" fill="#deecf6"/>
      <path id="path234" d="M378.118-185.217h-3.467a.17.17,0,0,1-.17-.17.17.17,0,0,1,.17-.17h3.467a.17.17,0,0,1,.17.17.17.17,0,0,1-.17.17" transform="translate(-358.552 213.583)" fill="#deecf6"/>
      <path id="path236" d="M290.374-185.217H283.8a.17.17,0,0,1-.17-.17.17.17,0,0,1,.17-.17h6.577a.17.17,0,0,1,.17.17.17.17,0,0,1-.17.17" transform="translate(-276.267 213.583)" fill="#deecf6"/>
      <path id="path238" d="M335.261-217.028h-7.29a.17.17,0,0,1-.17-.17.17.17,0,0,1,.17-.17h7.29a.17.17,0,0,1,.17.17.17.17,0,0,1-.17.17" transform="translate(-315.695 242.788)" fill="#deecf6"/>
      <path id="path240" d="M245.545-441.377v-.063h-2.038a.167.167,0,0,1-.166-.166v-2.038a.167.167,0,0,1,.166-.166h2.038a.167.167,0,0,1,.166.166v2.038a.167.167,0,0,1-.166.166v.126a.293.293,0,0,0,.293-.293v-2.038a.293.293,0,0,0-.293-.293h-2.038a.293.293,0,0,0-.293.293v2.038a.293.293,0,0,0,.293.293h2.038v-.063" transform="translate(-240.154 450.803)" fill="#4097b8"/>
      <path id="path242" d="M245.545-365.4v-.063h-2.038a.167.167,0,0,1-.166-.166v-2.038a.166.166,0,0,1,.166-.166h2.038a.167.167,0,0,1,.166.166v2.038a.167.167,0,0,1-.166.166v.126a.293.293,0,0,0,.293-.293v-2.038a.293.293,0,0,0-.293-.293h-2.038a.293.293,0,0,0-.293.293v2.038a.293.293,0,0,0,.293.293h2.038v-.063" transform="translate(-240.154 381.046)" fill="#4097b8"/>
      <path id="path244" d="M245.545-289.42v-.063h-2.038a.167.167,0,0,1-.166-.166v-2.038a.167.167,0,0,1,.166-.166h2.038a.167.167,0,0,1,.166.166v2.038a.167.167,0,0,1-.166.166v.126a.292.292,0,0,0,.293-.293v-2.038a.293.293,0,0,0-.293-.293h-2.038a.293.293,0,0,0-.293.293v2.038a.293.293,0,0,0,.293.293h2.038v-.063" transform="translate(-240.154 311.29)" fill="#4097b8"/>
      <path id="path246" d="M245.545-213.442v-.063h-2.038a.167.167,0,0,1-.166-.166v-2.038a.167.167,0,0,1,.166-.166h2.038a.167.167,0,0,1,.166.166v2.038a.167.167,0,0,1-.166.166v.126a.292.292,0,0,0,.293-.293v-2.038a.293.293,0,0,0-.293-.293h-2.038a.293.293,0,0,0-.293.293v2.038a.293.293,0,0,0,.293.293h2.038v-.063" transform="translate(-240.154 241.534)" fill="#4097b8"/>
      <path id="path248" d="M245.468-454.583l.941,1.137a.189.189,0,0,0,.158.068.189.189,0,0,0,.148-.088l1.811-2.857a.19.19,0,0,0-.059-.261.189.189,0,0,0-.261.059l-1.671,2.637-.775-.936a.19.19,0,0,0-.267-.025.189.189,0,0,0-.025.267" transform="translate(-241.789 462.441)" fill="#f89d1c"/>
      <path id="path250" d="M245.468-379.237l.941,1.137a.189.189,0,0,0,.158.068.189.189,0,0,0,.148-.088l1.811-2.857a.19.19,0,0,0-.059-.262.189.189,0,0,0-.261.059l-1.671,2.637-.775-.936a.19.19,0,0,0-.267-.025.189.189,0,0,0-.025.267" transform="translate(-241.789 393.265)" fill="#f89d1c"/>
    </g>
  </g>
</svg>
