<svg xmlns="http://www.w3.org/2000/svg" width="18.705" height="21.006" viewBox="0 0 18.705 21.006">
  <path id="notification_bell" data-name="notification bell" d="M42.461,38.843A6.8,6.8,0,0,1,44.49,33.99a6.886,6.886,0,0,1,11.727,4.938V39.6a12.7,12.7,0,0,0,1.35,6.458.755.755,0,0,1,0,.761.767.767,0,0,1-.663.383H41.769a.767.767,0,0,1-.663-.383.755.755,0,0,1,0-.761A12.694,12.694,0,0,0,42.461,39.6Zm3.812,8.363v.76a3.066,3.066,0,0,0,6.131,0v-.76" transform="translate(-39.986 -31.001)" fill="none" stroke="#2a2e43" stroke-linecap="round" stroke-linejoin="round" stroke-width="2"/>
</svg>
