<svg xmlns="http://www.w3.org/2000/svg" xmlns:xlink="http://www.w3.org/1999/xlink" width="35.231" height="32.875" viewBox="0 0 35.231 32.875">
  <defs>
    <linearGradient id="linear-gradient" x1="0.5" y1="1" x2="0.5" gradientUnits="objectBoundingBox">
      <stop offset="0" stop-color="#f2c4b0"/>
      <stop offset="1" stop-color="#ffe3d7"/>
    </linearGradient>
    <linearGradient id="linear-gradient-2" x1="0.5" y1="1" x2="0.5" gradientUnits="objectBoundingBox">
      <stop offset="0" stop-color="#fff"/>
      <stop offset="1" stop-color="#c3d2e7"/>
    </linearGradient>
    <linearGradient id="linear-gradient-8" x1="0.5" y1="1" x2="0.5" gradientUnits="objectBoundingBox">
      <stop offset="0" stop-color="#9dd5df"/>
      <stop offset="1" stop-color="#c3e1f5"/>
    </linearGradient>
  </defs>
  <g id="teachers" transform="translate(-0.002 -0.001)">
    <path id="Path_12361" data-name="Path 12361" d="M29.26,51.315H2c.363-1.971.772-4.178,1.164-6.313a7.636,7.636,0,0,1,6.787-5.938c.693-.092.312-.067,10.308-.067a7.764,7.764,0,0,1,7.865,6C28.488,47.137,28.9,49.344,29.26,51.315Z" transform="translate(-1.425 -18.968)" fill="#ef948c"/>
    <path id="Path_12362" data-name="Path 12362" d="M27.63,9.19c0,8.176,0,7.827-.051,8.351-.44,3.23-3.585,5.593-7.179,5.4A6.464,6.464,0,0,1,14,16.791V9.19Z" transform="translate(-6.61 -4.461)" fill="url(#linear-gradient)"/>
    <path id="Path_12363" data-name="Path 12363" d="M22.543,41.053l-3.805,1.966L18,39h2.272Z" transform="translate(-8.338 -18.971)" fill="url(#linear-gradient-2)"/>
    <path id="Path_12364" data-name="Path 12364" d="M26.543,35.31V37.2l-2.272,2.053L22,37.2V35.31A7.463,7.463,0,0,0,26.543,35.31Z" transform="translate(-10.066 -17.175)" fill="url(#linear-gradient)"/>
    <path id="Path_12365" data-name="Path 12365" d="M30.543,39,29.8,43.019,26,41.053,28.272,39Z" transform="translate(-11.795 -18.971)" fill="url(#linear-gradient-2)"/>
    <path id="Path_12366" data-name="Path 12366" d="M26.456,43.985,26.042,45.1a1.568,1.568,0,0,1-1.494.975c-1.329,0-1.533-1.083-1.908-2.094L24.548,43Z" transform="translate(-10.343 -20.918)" fill="#409b94"/>
    <path id="Path_12367" data-name="Path 12367" d="M26.509,56.2H22.25c.267-1.961.125-.914.852-6.159a1.313,1.313,0,0,1,2.556,0C26.367,55.174,26.237,54.209,26.509,56.2Z" transform="translate(-10.174 -23.853)" fill="#f2f7fa"/>
    <path id="Path_12368" data-name="Path 12368" d="M38.568,22.08H38V19h.568a1.548,1.548,0,1,1,0,3.08Z" transform="translate(-16.98 -9.236)" fill="url(#linear-gradient)"/>
    <path id="Path_12369" data-name="Path 12369" d="M11.7,19h.568v3.08H11.7a1.548,1.548,0,1,1,0-3.08Z" transform="translate(-4.881 -9.236)" fill="url(#linear-gradient)"/>
    <path id="Path_12370" data-name="Path 12370" d="M27.63,9.19c0,8.176,0,7.827-.051,8.351l-2.442-5.882c-5.231,0-6.554.267-8.275-1.027a7.361,7.361,0,0,0-1.624,3.531L14,16.73V9.19Z" transform="translate(-6.61 -4.461)" fill="#fcd2c3"/>
    <path id="Path_12371" data-name="Path 12371" d="M12.7,10.739a8.566,8.566,0,0,1,2.84-5.646,3.94,3.94,0,0,0,3.186,1.54h5.9l1.7,4.106L27.3,7.234a4.658,4.658,0,0,0-1.013-4.311A5.8,5.8,0,0,0,21.91.987c-2.544,0-4.316-.21-6.366,1.027A4.341,4.341,0,0,0,11,6.12a6.849,6.849,0,0,0,1.17,3.814Z" transform="translate(-5.313 -0.462)" fill="#332c51"/>
    <path id="Path_12372" data-name="Path 12372" d="M27.6,13.672,25.9,9.566H20a3.951,3.951,0,0,1-3.186-1.54,8.575,8.575,0,0,0-2.84,5.646A8.565,8.565,0,0,1,16.3,7a4.747,4.747,0,0,0,3.623,1.54h5.759a1.111,1.111,0,0,1,1.136.857Z" transform="translate(-6.58 -3.395)" fill="#8a6762"/>
    <rect id="Rectangle_6652" data-name="Rectangle 6652" width="5.679" height="7.699" transform="translate(27.835 24.649)" fill="#ef948c"/>
    <path id="Path_12373" data-name="Path 12373" d="M56.372,33.05V35.1a3.544,3.544,0,0,1-1.7,2.566v2.053H50.125V37.67a3.5,3.5,0,0,1-1.136-2.053c0-2.376-.341-4.619,2.272-4.619.386,0,.534.175.5.488C52.555,30.633,56.372,30.736,56.372,33.05Z" transform="translate(-21.721 -15.074)" fill="url(#linear-gradient)"/>
    <ellipse id="Ellipse_1383" data-name="Ellipse 1383" cx="1.988" cy="1.796" rx="1.988" ry="1.796" transform="translate(9.094 8.738)" fill="url(#linear-gradient-8)"/>
    <ellipse id="Ellipse_1384" data-name="Ellipse 1384" cx="1.988" cy="1.796" rx="1.988" ry="1.796" transform="translate(15.341 8.738)" fill="#c9e9e6"/>
    <path id="Path_12374" data-name="Path 12374" d="M26.543,35.31v1.027a7.463,7.463,0,0,1-4.543,0V35.31A7.463,7.463,0,0,0,26.543,35.31Z" transform="translate(-10.066 -17.175)" fill="#fcd2c3"/>
    <path id="Path_12375" data-name="Path 12375" d="M13.711,60l-.21,1.54H2L2.284,60Z" transform="translate(-1.425 -29.192)" fill="#ea8681"/>
    <path id="Path_12376" data-name="Path 12376" d="M41.09,61.54H29.59L29.38,60H40.807Z" transform="translate(-13.255 -29.192)" fill="#ea8681"/>
    <path id="Path_12377" data-name="Path 12377" d="M26.509,61.54H22.25L22.46,60H26.3Z" transform="translate(-10.174 -29.192)" fill="#f2f7fa"/>
    <rect id="Rectangle_6653" data-name="Rectangle 6653" width="5.679" height="1.54" transform="translate(27.835 30.808)" fill="#ea8681"/>
    <path id="Path_12378" data-name="Path 12378" d="M26.257,29.266a.611.611,0,0,0-.806,0,1.223,1.223,0,0,1-1.6,0,.614.614,0,0,0-.806,0,.481.481,0,0,0,0,.729C24.571,31.376,27.1,30.036,26.257,29.266Z" transform="translate(-10.445 -14.159)"/>
    <path id="Path_12379" data-name="Path 12379" d="M36.205,17.953c0-2.027-2.425-2.936-4.543-2.412V.5a.571.571,0,0,0-1.136,0V15.386c-1.3,0-2.84.513-2.84,3.08,0,1.945-.284,2.859,1.136,4.306v1.34a.543.543,0,0,0-.568.513c0,1.54.04,1.714-.034,1.3-.691-3.739-4.29-6.468-8.485-6.431h-1.7V18.466a6.831,6.831,0,0,0,4.447-5.133c2.97,0,3.18-3.747.392-4.08.7-2.53.841-2.859.841-3.726,0-3.057-2.745-5.535-6.128-5.538-2.681,0-4.4-.2-6.537,1.027-4.112.128-6.378,4.106-3.924,8.32a2.042,2.042,0,0,0-1.513,2.3,2.227,2.227,0,0,0,2.3,1.694,6.8,6.8,0,0,0,4.447,5.133V19.49h-1.7c-4.194-.037-7.794,2.692-8.485,6.431L.994,32.242a.529.529,0,0,0,.477.6.571.571,0,0,0,.659-.431L3.266,26.1a7.128,7.128,0,0,1,6.906-5.574c.869,4.737.46,4.47,2.794,3.264a2.449,2.449,0,0,0,.846,1.391c-.534.513-.386.354-1.312,7.073a.531.531,0,0,0,.5.575.563.563,0,0,0,.636-.452l.852-6.159a.734.734,0,0,1,1.431,0l.852,6.159a.563.563,0,0,0,.636.452.531.531,0,0,0,.5-.575c-.926-6.708-.784-6.544-1.312-7.073a2.474,2.474,0,0,0,.846-1.391c1.323.688,1.374.739,1.579.739a.585.585,0,0,0,.477-.236c.1-.139,0,.164.738-3.767A7.126,7.126,0,0,1,27.118,26.1c1.136,6.231,1.039,6.744,1.7,6.744a.593.593,0,0,0,.426-.185c.2-.221.142.2.142-7.514h4.543v7.186a.571.571,0,0,0,1.136,0v-7.7a.543.543,0,0,0-.568-.513V22.829C36.5,21.371,36.205,20.083,36.205,17.953ZM18.6,23.213l-2.453-1.268,1.55-1.427h1.369ZM16.13,9.355a2.824,2.824,0,0,0-1.817,0A2.59,2.59,0,0,0,12.17,8.17,2.629,2.629,0,0,0,9.945,9.227H9.127a8,8,0,0,1,2.056-3.834A4.6,4.6,0,0,0,14.4,6.661h5.509l1.062,2.566H20.44A2.635,2.635,0,0,0,18.224,8.2,2.59,2.59,0,0,0,16.1,9.376Zm2.186-.128a1.357,1.357,0,0,1,1.42,1.283,1.427,1.427,0,0,1-2.84,0,1.357,1.357,0,0,1,1.42-1.283Zm-6.247,0a1.357,1.357,0,0,1,1.42,1.283,1.357,1.357,0,0,1-1.42,1.283,1.357,1.357,0,0,1-1.42-1.283,1.357,1.357,0,0,1,1.42-1.283ZM23.711,11.28a1.085,1.085,0,0,1-1.136,1.027V10.254a1.085,1.085,0,0,1,1.136,1.026ZM11.217,2.042a8.956,8.956,0,0,1,3.754-1.027h2.612a4.781,4.781,0,0,1,4.992,4.512,11.413,11.413,0,0,1-.676,3c-1.124-2.7-1.073-2.895-1.6-2.895H14.4a3.372,3.372,0,0,1-2.715-1.309.579.579,0,0,0-.416-.228.6.6,0,0,0-.459.146A9.1,9.1,0,0,0,8.071,8.76a6.347,6.347,0,0,1-.829-3.126,3.8,3.8,0,0,1,3.975-3.593Zm-3.5,8.212c.125.185.091-.154.091,2.053a1.1,1.1,0,0,1-1.181-.985,1.076,1.076,0,0,1,1.092-1.068Zm1.227,2.053V10.254c.767,0,.568-.077.568.257a2.442,2.442,0,0,0,2.556,2.31,2.442,2.442,0,0,0,2.556-2.31c0-.108-.028-.092,0-.144a1.559,1.559,0,0,1,1.136,0v.144a2.442,2.442,0,0,0,2.556,2.31,2.442,2.442,0,0,0,2.556-2.31c0-.334-.2-.257.528-.257.057.133.04-.185.04,2.053,0,3.118-2.8,5.646-6.247,5.646s-6.247-2.528-6.247-5.646ZM16.9,18.8v1l-1.7,1.54L13.5,19.8v-1A8.363,8.363,0,0,0,16.9,18.8Zm-4.208,1.719,1.579,1.427-2.453,1.268-.494-2.695ZM16.147,24a1.042,1.042,0,0,1-1.908,0l-.267-.724,1.221-.631,1.221.631Zm17.475-1.858c-.335.2-.256.359-.256,1.966H29.958c0-1.673.051-1.7-.165-1.9a2.888,2.888,0,0,1-.971-1.689c0-2.176-.329-4.009,1.511-4.106-.488.847-.375,1.76-.375,3.08,0,1.6,2.272,1.981,2.272,1.027a.543.543,0,0,0-.568-.513.55.55,0,0,1-.419-.134.441.441,0,0,1-.149-.379c0-1.268-.085-2.053.278-2.638a.58.58,0,0,0,.221-.2c1.244-.539,3.476-.164,3.476,1.3V20c0,1.242-1.437,2.13-1.448,2.14Z" transform="translate(-0.987 0.024)"/>
  </g>
</svg>
