<svg xmlns="http://www.w3.org/2000/svg" xmlns:xlink="http://www.w3.org/1999/xlink" width="36.503" height="36.473" viewBox="0 0 36.503 36.473">
  <defs>
    <linearGradient id="linear-gradient" x1="0.5" y1="1" x2="0.5" gradientUnits="objectBoundingBox">
      <stop offset="0" stop-color="#da5466"/>
      <stop offset="1" stop-color="#f4929c"/>
    </linearGradient>
    <linearGradient id="linear-gradient-2" x1="0.5" y1="1" x2="0.5" gradientUnits="objectBoundingBox">
      <stop offset="0" stop-color="#949aaf"/>
      <stop offset="1" stop-color="#c6ccda"/>
    </linearGradient>
    <linearGradient id="linear-gradient-3" x1="0.5" x2="0.5" y2="0" xlink:href="#linear-gradient-2"/>
    <linearGradient id="linear-gradient-4" x1="0.499" y1="1" x2="0.499" gradientUnits="objectBoundingBox">
      <stop offset="0" stop-color="#474f72"/>
      <stop offset="1" stop-color="#878c9f"/>
    </linearGradient>
    <linearGradient id="linear-gradient-6" x1="0" y1="0.5" x2="1" y2="0.5" xlink:href="#linear-gradient-2"/>
    <linearGradient id="linear-gradient-7" x1="0.5" y1="1" x2="0.5" gradientUnits="objectBoundingBox">
      <stop offset="0" stop-color="#d4d8e1"/>
      <stop offset="1" stop-color="#f3f4f5"/>
    </linearGradient>
  </defs>
  <g id="timetable" transform="translate(0.063)">
    <circle id="Ellipse_1416" data-name="Ellipse 1416" cx="15.384" cy="15.384" r="15.384" transform="translate(2.822 5.128)" fill="url(#linear-gradient)"/>
    <path id="Path_12825" data-name="Path 12825" d="M20.366,50.954A15.4,15.4,0,0,1,4.982,35a15.384,15.384,0,0,0,30.769,0A15.4,15.4,0,0,1,20.366,50.954Z" transform="translate(-2.16 -15.057)" fill="#cf4055"/>
    <path id="Path_12826" data-name="Path 12826" d="M12.116,7.567,3.569,16.114l-.792-.792A6.046,6.046,0,0,1,9.364,5.464,7.883,7.883,0,0,1,12.116,7.567Z" transform="translate(-0.463 -2.154)" fill="url(#linear-gradient-2)"/>
    <path id="Path_12827" data-name="Path 12827" d="M43.5,7.567l8.547,8.547.792-.792a6.046,6.046,0,0,0-6.587-9.857A8.153,8.153,0,0,0,43.5,7.567Z" transform="translate(-18.741 -2.154)" fill="url(#linear-gradient-3)"/>
    <path id="Path_12828" data-name="Path 12828" d="M12.115,8.652,3.568,17.2l-.792-.792a5.9,5.9,0,0,1-1.652-5.362A2.9,2.9,0,0,0,6.019,12.47l4.94-4.94A12.859,12.859,0,0,1,12.115,8.652Z" transform="translate(-0.462 -3.239)" fill="#8288a1"/>
    <path id="Path_12829" data-name="Path 12829" d="M52.047,17.186,43.5,8.64c.775-.775.9-.912,1.14-1.14l4.946,4.946a2.895,2.895,0,0,0,4.9-1.487C55.033,13.836,53.756,15.477,52.047,17.186Z" transform="translate(-18.741 -3.227)" fill="#8288a1"/>
    <path id="Path_12830" data-name="Path 12830" d="M13.524,57.31,11,60.552h2.849L16.031,58.9" transform="translate(-4.759 -24.655)" fill="url(#linear-gradient-4)"/>
    <path id="Path_12831" data-name="Path 12831" d="M46.677,57.31,49.2,60.552H46.352L44.17,58.9" transform="translate(-19.029 -24.655)" fill="url(#linear-gradient-4)"/>
    <rect id="Rectangle_6821" data-name="Rectangle 6821" width="3.419" height="2.279" transform="translate(16.497 0.57)" fill="url(#linear-gradient-6)"/>
    <circle id="Ellipse_1417" data-name="Ellipse 1417" cx="12.535" cy="12.535" r="12.535" transform="translate(5.671 7.977)" fill="url(#linear-gradient-7)"/>
    <path id="Path_12832" data-name="Path 12832" d="M35.071,27.535a12.535,12.535,0,1,0-25.071,0,12.535,12.535,0,1,1,25.071,0Z" transform="translate(-4.329 -6.453)" fill="#dfe3ea"/>
    <path id="Path_12833" data-name="Path 12833" d="M22.105,13A13.105,13.105,0,1,0,35.211,26.105,13.105,13.105,0,0,0,22.105,13Zm0,25.071A11.966,11.966,0,1,1,34.071,26.105,11.966,11.966,0,0,1,22.105,38.071Z" transform="translate(-3.899 -5.593)"/>
    <path id="Path_12834" data-name="Path 12834" d="M33.71,14.365c1.219-1.225,2.729-2.644,2.729-5.47a6.615,6.615,0,0,0-6.615-6.615c-2.724,0-4.159,1.424-5.47,2.729a.57.57,0,0,0,0,.775,15.874,15.874,0,0,0-5.578-1.225V3.419h1.14a.57.57,0,0,0,.57-.57V.57a.57.57,0,0,0-.57-.57H16.5a.57.57,0,0,0-.57.57V2.849a.57.57,0,0,0,.57.57h1.14v1.14a15.874,15.874,0,0,0-5.561,1.208.57.57,0,0,0,0-.775,8.311,8.311,0,0,0-2.94-2.222,6.615,6.615,0,0,0-7.225,10.8c.872.872.912.957,1.2.957a.57.57,0,0,0,.37-.148A15.954,15.954,0,0,0,7.95,32.74L5.768,35.549a.57.57,0,0,0,.473.917c3.043,0,2.98.046,3.191-.114l1.9-1.442a15.954,15.954,0,0,0,13.743,0l1.9,1.442c.205.16.125.114,3.191.114a.57.57,0,0,0,.45-.917l-2.16-2.809a15.954,15.954,0,0,0,4.5-18.359A.57.57,0,0,0,33.71,14.365ZM17.067,1.14h2.279v1.14H17.067ZM3.107,13.157C-2.563,7.481,5.147-.285,10.85,5.413L8,8.262a17.242,17.242,0,0,0-2.04,2.04ZM8.9,35.327H7.409l1.464-1.886c.439.313.889.61,1.356.877Zm20.137,0H27.517l-1.333-1.009c.467-.268.917-.57,1.356-.877Zm-10.826,0A14.806,14.806,0,0,1,6.81,11.088L8.8,9.094a14.775,14.775,0,0,1,18.849,0l2,2A14.841,14.841,0,0,1,18.206,35.327ZM28.417,8.262,25.568,5.413l.393-.387A5.481,5.481,0,0,1,35.3,8.894a5.659,5.659,0,0,1-1.994,4.262l-2.849-2.849a16.826,16.826,0,0,0-2.04-2.046Z" transform="translate(0)"/>
    <path id="Path_12835" data-name="Path 12835" d="M32.14,18.279V16.57a.57.57,0,1,0-1.14,0v1.709a.57.57,0,1,0,1.14,0Z" transform="translate(-13.364 -6.883)"/>
    <path id="Path_12836" data-name="Path 12836" d="M31,51.57v1.709a.57.57,0,1,0,1.14,0V51.57a.57.57,0,1,0-1.14,0Z" transform="translate(-13.364 -21.941)"/>
    <path id="Path_12837" data-name="Path 12837" d="M14.279,35H12.57a.57.57,0,0,0,0,1.14h1.709a.57.57,0,1,0,0-1.14Z" transform="translate(-5.19 -15.057)"/>
    <path id="Path_12838" data-name="Path 12838" d="M47.57,36.14h1.709a.57.57,0,1,0,0-1.14H47.57a.57.57,0,0,0,0,1.14Z" transform="translate(-20.247 -15.057)"/>
    <path id="Path_12839" data-name="Path 12839" d="M22.37,19.617a.57.57,0,1,0-.757-.22A.57.57,0,0,0,22.37,19.617Z" transform="translate(-9.292 -7.987)"/>
    <path id="Path_12840" data-name="Path 12840" d="M40.8,51.541a.57.57,0,1,0,.757.22.57.57,0,0,0-.757-.22Z" transform="translate(-17.466 -22.145)"/>
    <path id="Path_12841" data-name="Path 12841" d="M41.37,18.631a.57.57,0,1,0,.188.766A.57.57,0,0,0,41.37,18.631Z" transform="translate(-17.466 -7.987)"/>
    <path id="Path_12842" data-name="Path 12842" d="M22.37,51.541a.57.57,0,1,0,.188.766A.57.57,0,0,0,22.37,51.541Z" transform="translate(-9.292 -22.145)"/>
    <path id="Path_12843" data-name="Path 12843" d="M48.353,44.573a.572.572,0,1,0,.211.781A.572.572,0,0,0,48.353,44.573Z" transform="translate(-20.46 -19.143)"/>
    <path id="Path_12844" data-name="Path 12844" d="M14.833,26.564a.572.572,0,1,0-.211-.781A.572.572,0,0,0,14.833,26.564Z" transform="translate(-6.285 -10.969)"/>
    <path id="Path_12845" data-name="Path 12845" d="M48.353,26.564a.572.572,0,1,0-.781-.211.572.572,0,0,0,.781.211Z" transform="translate(-20.46 -10.969)"/>
    <path id="Path_12846" data-name="Path 12846" d="M14.833,44.573a.572.572,0,1,0,.781.211A.572.572,0,0,0,14.833,44.573Z" transform="translate(-6.285 -19.143)"/>
    <path id="Path_12847" data-name="Path 12847" d="M29.407,29.838h-.729c-.57-.94-.41,1.242-.41-6.268a.57.57,0,0,0-1.14,0v5.857c-.912.53.98.41-4.558.41a.57.57,0,1,0,0,1.14c5.538,0,3.647-.12,4.558.41v.729a.57.57,0,1,0,1.14,0v-.729a1.088,1.088,0,0,0,.41-.41h.729a.57.57,0,0,0,0-1.14Z" transform="translate(-9.492 -9.895)"/>
  </g>
</svg>
